<svg id="SVG" xmlns="http://www.w3.org/2000/svg" viewBox="0 0 758.16 618.46"><path d="M196.38,126.28h17.21q.47,5.44,3.65,8.2,4.08,3.48,13,3.47c4.1,0,7.36-.62,9.8-1.87q4.13-2.12,4.13-6.28c0-2.32-1.19-4-3.57-5.09s-7.54-2.23-15.51-3.45q-10.83-1.68-14.23-2.57a25.84,25.84,0,0,1-6.68-2.86,13.81,13.81,0,0,1-5.09-5.49,16.52,16.52,0,0,1-1.8-7.73A18.08,18.08,0,0,1,201,91.36q7.13-9.28,27-9.28,17.76,0,25.36,7.64a19.18,19.18,0,0,1,5.71,12.84H242.27a8.58,8.58,0,0,0-3.65-6.33q-3.42-2.3-10.78-2.29-14,0-14,6.56,0,3.93,4.59,5.25,3.24.93,15.75,3,9.47,1.55,13.59,2.7a26,26,0,0,1,7.13,3.07,13.7,13.7,0,0,1,4.85,5.58,17.43,17.43,0,0,1,1.76,7.82q0,10.94-9.47,16.64-8.67,5.2-23.48,5.21-18.33,0-26.3-8.53a20.92,20.92,0,0,1-4.27-6.5A27.08,27.08,0,0,1,196.38,126.28Zm103.22-28q14,0,22.78,7.22,8.34,6.93,8.35,18.51t-8.35,18.52q-8.72,7.22-22.68,7.22t-22.83-7.22q-8.4-7-8.39-18.89a22.3,22.3,0,0,1,8.39-18.14Q285.68,98.26,299.6,98.25Zm0,10.12q-7.5,0-11.77,4.41-4,4.17-4,11.2t4,11.21q4.32,4.45,11.77,4.45t11.72-4.45a15.34,15.34,0,0,0,4-11q0-7.26-4-11.39Q307.09,108.37,299.65,108.37Zm43.55,21-2.58-30.14V83.91h16V99.23l-2.39,30.14Zm-2.11,18.52v-14.3h15.28v14.3Zm51,0V122.62L362.18,83.91h18.89l18.56,25.68,18.1-25.68h18.14l-29.25,38.71v25.27ZM469.8,98.25q14,0,22.79,7.22,8.34,6.93,8.34,18.51t-8.34,18.52q-8.73,7.22-22.69,7.22-14.11,0-22.83-7.22-8.38-7-8.39-18.89a22.33,22.33,0,0,1,8.39-18.14Q455.89,98.26,469.8,98.25Zm.05,10.12q-7.5,0-11.76,4.41-4,4.17-4,11.2t4,11.21q4.31,4.45,11.76,4.45t11.72-4.45a15.3,15.3,0,0,0,4-11q0-7.26-4-11.39Q477.31,108.37,469.85,108.37Zm77.53-26.29q16,0,26.39,8,12.62,9.65,12.61,26.25,0,15.14-11.15,24.37-10.93,9-27.71,9.05-17,0-27.93-9.05-11.16-9.18-11.16-24.8a31.74,31.74,0,0,1,5.95-19.07A33.32,33.32,0,0,1,530,85,48.3,48.3,0,0,1,547.38,82.08Zm0,11.81q-9.75,0-16,5.86a20.93,20.93,0,0,0-6.7,16q0,9.52,5.86,15.61Q537,138,547.43,138t16.78-6.66A21.25,21.25,0,0,0,570.07,116q0-10.08-6.7-16.22A22.89,22.89,0,0,0,547.34,93.89Zm49.59,54v-64h16.22l35.67,43.31V83.91H663v64H646.9l-35.72-43.41v43.41Zm81.56-18.52-2.58-30.14V83.91h16V99.23l-2.4,30.14Zm-2.11,18.52v-14.3h15.28v14.3ZM115.15,325.83v39.33a85.53,85.53,0,0,1-.33,9.23q-1.17,9.09-9.7,13.92-5.91,3.33-14.53,3.33-9.37,0-15.47-3.8a18.12,18.12,0,0,1-7.55-8.55q-2.16-5.24-2.11-14.74H80c.22,4.84.66,8.11,1.31,9.79q2.16,5.58,9.38,5.58,6.8,0,8.67-4.59a14.52,14.52,0,0,0,1-3.92c.14-1.36.21-3.86.21-7.52V325.83Zm5.81,64,30.7-64h14.63l31.36,64H180.3l-6.84-14.44h-30L137,389.81ZM148.8,364h19.5l-9.89-21.28Zm50.91,25.78V377.72L245,338H201.07V325.83h64.27v12.42l-45.1,39.33h46.41v12.23Zm71.3,0V377.72L316.29,338H272.37V325.83h64.26v12.42l-45.09,39.33H338v12.23Zm157.64-24.09h17a30.25,30.25,0,0,1-11.25,18.61q-9.46,7.31-25.5,7.31-15.84,0-26.25-8a33.48,33.48,0,0,1-9.75-11.62,32.07,32.07,0,0,1-3.28-14.49q0-15.93,12.47-25.5Q392.65,324,408.73,324q19.17,0,29.39,10.17a27.73,27.73,0,0,1,7.54,15.24h-17a18.25,18.25,0,0,0-1.76-4.62,16.2,16.2,0,0,0-3.12-3.63q-6-5.4-15.28-5.4-9.8,0-16,5.68-6.61,6.13-6.61,16.26A21.31,21.31,0,0,0,391.76,373q6.56,6.84,17,6.84,9.42,0,15.18-5.76A18.44,18.44,0,0,0,428.65,365.72ZM448,389.81l30.7-64h14.63l31.36,64H507.3l-6.84-14.44H470.51L464,389.81ZM475.8,364h19.5l-9.89-21.28Zm55.41,25.78v-64h37.64q11.45,0,15.8,2.25a14.33,14.33,0,0,1,6.37,6.61,18.94,18.94,0,0,1,1.78,8.25q0,8-5.53,12.51a23.52,23.52,0,0,1-7.4,3.75,17.36,17.36,0,0,1,5.53,2,9.82,9.82,0,0,1,3.89,5A43.27,43.27,0,0,1,591,376.78q.51,6.75.86,8.63a16.61,16.61,0,0,0,1.67,4.4H577.24A97.18,97.18,0,0,1,575.79,379a31.86,31.86,0,0,0-1.36-7.48,8.6,8.6,0,0,0-2.81-3.91q-2.49-1.92-8-1.92H545.84v24.09ZM545.84,354h19c3.44,0,5.81-.28,7.13-.84q4.72-2,4.73-7.41c0-3.62-1.59-6-4.78-7a25.28,25.28,0,0,0-7-.66h-19Zm74.57,35.86v-51.7H598.05V325.83h59.44v12.28H635v51.7Zm44.86,0v-64H680v64Zm28,0v-64H751v12.28H707.84v13h37.92v11.39H707.84v15H751v12.28Zm68.06,0v-64H799q11.44,0,15.8,2.25a14.33,14.33,0,0,1,6.37,6.61,18.94,18.94,0,0,1,1.78,8.25q0,8-5.53,12.51a23.52,23.52,0,0,1-7.4,3.75,17.36,17.36,0,0,1,5.53,2,9.82,9.82,0,0,1,3.89,5,43.27,43.27,0,0,1,1.69,10.55q.51,6.75.86,8.63a16.61,16.61,0,0,0,1.67,4.4H807.35A97.18,97.18,0,0,1,805.9,379a31.86,31.86,0,0,0-1.36-7.48,8.6,8.6,0,0,0-2.81-3.91q-2.49-1.92-8-1.92H776v24.09ZM776,354h19q5.16,0,7.12-.84,4.74-2,4.74-7.41c0-3.62-1.59-6-4.78-7a25.28,25.28,0,0,0-7-.66H776ZM109,627.81v-64h14.63v51.75h36v12.23Zm51.66,0,30.7-64H206l31.35,64H220l-6.84-14.44h-30l-6.51,14.44ZM188.53,602H208l-9.89-21.28Zm94.69,25.78H266.58l-29.44-64h17.63l20.53,46.92,19.64-46.92h16.45Zm27.89,0,30.7-64h14.63l31.36,64H370.45l-6.84-14.44H333.66l-6.52,14.44ZM339,602h19.5l-9.89-21.28Zm81,25.78v-64h14.63v51.75h36v12.23Zm51.66,0,30.7-64h14.63l31.36,64H531l-6.84-14.44H494.16l-6.52,14.44ZM499.45,602H519l-9.89-21.28Zm81,25.78v-64h37.64q11.45,0,15.8,2.25a14.39,14.39,0,0,1,6.38,6.61,19.09,19.09,0,0,1,1.78,8.25q0,8-5.53,12.51a23.7,23.7,0,0,1-7.41,3.75,17.36,17.36,0,0,1,5.53,2,9.82,9.82,0,0,1,3.89,5,43.27,43.27,0,0,1,1.69,10.55q.51,6.75.87,8.63a16.2,16.2,0,0,0,1.66,4.4H626.48A99.72,99.72,0,0,1,625,617a31.86,31.86,0,0,0-1.36-7.48,8.6,8.6,0,0,0-2.81-3.91q-2.49-1.92-8-1.92H595.08v24.09ZM595.08,592h19c3.44,0,5.81-.28,7.13-.84a7.39,7.39,0,0,0,4.73-7.41c0-3.62-1.59-6-4.78-7a25.28,25.28,0,0,0-7-.66h-19Zm71.72-28.12v36.28q0,7.41,2.06,11,3.89,6.71,14.58,6.71,11.71,0,15.23-8c.94-2.15,1.41-5.39,1.41-9.7V563.83h14.67v37.5a63.78,63.78,0,0,1-.42,8.15q-1.41,10.28-11.53,15.94-7.56,4.22-19.36,4.22t-19.36-4.22q-10.17-5.71-11.53-16.22a65.51,65.51,0,0,1-.43-8.48V563.83Zm60.65,64v-64h57.71v12.28H742v13H780v11.39H742v15h43.13v12.28ZM264.13,212.89V202h1c.39,2.64.77,3.89,1.78,5.38a8.11,8.11,0,0,0,6.58,3.74,5.19,5.19,0,0,0,3.64-9.21A15.73,15.73,0,0,0,274,199.5l-3.79-2.16c-4.47-2.55-6.29-5-6.29-8.5,0-4.94,3.46-8.31,8.5-8.31a12.44,12.44,0,0,1,4.41.82,8.27,8.27,0,0,0,2.5.67c.62,0,1-.33,1.34-1.15h1v10.18h-.86c-1.11-3.65-1.92-5.28-3.17-6.58a6.18,6.18,0,0,0-4.61-1.82c-2.93,0-5,1.82-5,4.37,0,1.92,1.63,3.93,4.71,5.66l3.74,2.16c5,2.88,7.25,5.81,7.25,9.55,0,5.14-3.94,8.84-9.51,8.84-1.87,0-1.87,0-5.85-1.25a6.61,6.61,0,0,0-1.83-.39c-.77,0-1.15.34-1.44,1.3Zm41.33-8.5c-1.2,5.48-4.56,8.84-8.88,8.84-5.09,0-8.88-4.9-8.88-11.38s3.94-11.38,9.17-11.38c4.75,0,7.82,3.51,7.92,9.12H291.3c.1,5.76,2.83,9.7,6.72,9.7,2.74,0,5-1.87,6.77-5.47Zm-5.66-6.72c-.1-3.21-1.59-5.09-4-5.09s-4,1.88-4.41,5.09Zm29.57,3.8c0,6.57-4.71,11.76-10.61,11.76s-10.32-4.76-10.32-11.09a12.27,12.27,0,0,1,3.36-8.55,9.65,9.65,0,0,1,7.39-3.12C325.09,190.47,329.37,195.13,329.37,201.47Zm-16.61.09c0,5.91,2.68,10,6.52,10,3.51,0,5.76-3.36,5.76-8.6,0-6.38-2.64-10.8-6.52-10.8C314.87,192.15,312.76,195.61,312.76,201.56Zm38,2.88c0,4.71.29,5.62,1.92,5.62a3.85,3.85,0,0,0,1.35-.24l.29.86a61.62,61.62,0,0,0-7.35,2.69v-4.51a33.06,33.06,0,0,1-2.4,2.49,7.12,7.12,0,0,1-4.7,1.88,4.68,4.68,0,0,1-4.61-3,12.77,12.77,0,0,1-.77-5.38v-8.16c0-4.32-.43-5.09-2.74-5.09H331v-.81h7.2v14c0,3.79,1,5.28,3.41,5.28,1.63,0,2.55-.48,5.28-2.83V196.71c0-4.32-.43-5.09-2.78-5.09H343v-.81h7.72ZM362.87,207c0,4.32.43,5.08,2.78,5.08h.82v.82h-10.9v-.82h.77c2.3,0,2.73-.76,2.73-5.08V187.21c0-2,0-2.35-.43-2.83a1.54,1.54,0,0,0-1.34-.58,2.48,2.48,0,0,0-1,.19l-.48.15-.34-.68c3.55-1.48,4.08-1.72,7.35-3.36Zm6.62,10.7c2.59-.82,4-2.5,4.08-4.85a6.18,6.18,0,0,1-1.39.19,2.61,2.61,0,0,1-2.55-2.59,2.55,2.55,0,0,1,2.64-2.54c1.92,0,3.36,1.77,3.36,4.17,0,3.32-2.4,5.81-6.14,6.44Zm24.24-4.8V202h1a11.19,11.19,0,0,0,1.78,5.38,8.09,8.09,0,0,0,6.57,3.74,5.19,5.19,0,0,0,3.65-9.21,16,16,0,0,0-3.07-2.45l-3.79-2.16c-4.47-2.55-6.29-5-6.29-8.5,0-4.94,3.45-8.31,8.49-8.31a12.49,12.49,0,0,1,4.42.82,8.2,8.2,0,0,0,2.5.67c.62,0,1-.33,1.34-1.15h1v10.18h-.86c-1.11-3.65-1.93-5.28-3.17-6.58a6.2,6.2,0,0,0-4.61-1.82c-2.93,0-5,1.82-5,4.37,0,1.92,1.63,3.93,4.7,5.66l3.75,2.16c5,2.88,7.25,5.81,7.25,9.55,0,5.14-3.94,8.84-9.51,8.84-1.87,0-1.87,0-5.86-1.25a6.55,6.55,0,0,0-1.82-.39c-.77,0-1.15.34-1.44,1.3Zm44.4-11.42c0,6.57-4.7,11.76-10.61,11.76s-10.32-4.76-10.32-11.09a12.31,12.31,0,0,1,3.36-8.55,9.66,9.66,0,0,1,7.39-3.12C433.86,190.47,438.13,195.13,438.13,201.47Zm-16.61.09c0,5.91,2.69,10,6.53,10,3.5,0,5.76-3.36,5.76-8.6,0-6.38-2.64-10.8-6.53-10.8C423.63,192.15,421.52,195.61,421.52,201.56Zm38,2.88c0,4.71.29,5.62,1.92,5.62a3.8,3.8,0,0,0,1.34-.24l.29.86a62.11,62.11,0,0,0-7.34,2.69v-4.51a33.06,33.06,0,0,1-2.4,2.49,7.16,7.16,0,0,1-4.71,1.88,4.69,4.69,0,0,1-4.61-3,13,13,0,0,1-.76-5.38v-8.16c0-4.32-.44-5.09-2.74-5.09h-.67v-.81H447v14c0,3.79,1,5.28,3.41,5.28,1.63,0,2.54-.48,5.28-2.83V196.71c0-4.32-.43-5.09-2.79-5.09h-1.15v-.81h7.73Zm11.76-13.63h4.56v1.77h-4.56v13.59c0,2.16.24,3.07,1,3.74a2.24,2.24,0,0,0,1.29.48c1.2,0,2.16-.57,3.22-2.06l.67.58c-1.49,2.92-3.26,4.32-5.61,4.32a4.08,4.08,0,0,1-4-2.45,11.57,11.57,0,0,1-.62-4.8v-13.4h-3.46v-.91c3.89-1.73,5.18-3.17,6.38-7h1.11ZM486,194.6c3.12-3.12,4.9-4.13,7.44-4.13a5,5,0,0,1,4.42,2.74c.72,1.49,1,3,1,5.85V207c0,4.32.38,5.08,2.69,5.08H502v.82H491.79v-.82h.53c2.35,0,2.74-.76,2.74-5.08v-7.93a12,12,0,0,0-.44-3.6,3.36,3.36,0,0,0-3-2.2c-1.68,0-3.12.81-5.57,3.12V207c0,4.32.43,5.08,2.79,5.08h.67v.82h-10.8v-.82h.81c2.31,0,2.74-.76,2.74-5.08V187.21c0-2.74-.34-3.41-1.78-3.41a2.7,2.7,0,0,0-1,.19l-.48.15-.33-.68c3.55-1.48,4.08-1.72,7.34-3.36Zm39.46,13.3c0,3,.86,4.08,3.36,4.08H530v.91H516.08V212h1.1c2.4,0,3.27-1.11,3.27-4.08v-22c0-3-.92-4.13-3.27-4.13h-1.1v-.91H530v.91l-1,.05c-1.87.15-2.21.24-2.74.82s-.81,1.53-.81,3.26v10.27a73.39,73.39,0,0,0,8.45-8.44c2.16-2.64,2.93-3.89,2.93-4.66,0-1-.49-1.15-2.79-1.3v-.91h11.67v1h-.68a7.8,7.8,0,0,0-3.6,1.35,21.85,21.85,0,0,0-3.45,3.4c-3.7,4-4,4.37-7,7.49l-1,1,11,11.43c4.08,4.17,6.19,5.42,9.12,5.47v.91H534.85V212h.77c1.15,0,2-.53,2-1.25s-1.1-2.11-3.26-4.32l-8.83-9Zm45.17-6.43c0,6.57-4.71,11.76-10.61,11.76s-10.32-4.76-10.32-11.09a12.27,12.27,0,0,1,3.36-8.55,9.65,9.65,0,0,1,7.39-3.12C566.38,190.47,570.66,195.13,570.66,201.47Zm-16.61.09c0,5.91,2.69,10,6.53,10,3.5,0,5.76-3.36,5.76-8.6,0-6.38-2.64-10.8-6.53-10.8C556.16,192.15,554.05,195.61,554.05,201.56Zm26.4,5.43c0,4.32.38,5.08,2.78,5.08h1.44v.82H572.86v-.82h1.06c2.3,0,2.73-.76,2.73-5.08v-9.75c0-2.74-.33-3.36-1.77-3.36a3.78,3.78,0,0,0-1,.14l-.53.2-.29-.68c3.55-1.48,4.08-1.72,7.35-3.36v4c1.77-2.55,3.45-3.75,5.33-3.75A2.64,2.64,0,0,1,588.7,193a2.16,2.16,0,0,1-2.2,2.3c-.92,0-1.25-.19-2.26-1.25a1.07,1.07,0,0,0-.72-.29c-1,0-1.92.92-3.07,2.93Zm27.5-2.6c-1.2,5.48-4.56,8.84-8.88,8.84-5.09,0-8.88-4.9-8.88-11.38s3.94-11.38,9.17-11.38c4.75,0,7.82,3.51,7.92,9.12H593.79c.1,5.76,2.83,9.7,6.72,9.7,2.74,0,5-1.87,6.77-5.47Zm-5.66-6.72c-.1-3.21-1.59-5.09-4-5.09s-4,1.88-4.41,5.09Zm27.93,12.15c-1.48,2.3-3.12,3.41-5,3.41-1.53,0-2.44-1.16-2.73-3.46-2.69,2.5-4.61,3.46-6.77,3.46-2.74,0-4.85-2.36-4.85-5.43,0-2.49,1.34-4.51,4-6a51.32,51.32,0,0,1,7.64-3.27v-1.05c0-2.55-.1-3.17-.53-4.13a3.23,3.23,0,0,0-3-1.54c-2,0-3.41,1.2-3.41,3v.72a3.31,3.31,0,0,1-.14,1.44,1.91,1.91,0,0,1-1.82,1.29A2.24,2.24,0,0,1,611.5,196c0-3,3.75-5.52,8.16-5.52,4.75,0,6.77,2.07,6.77,6.87V208c0,1.92.19,2.4,1,2.4a3.31,3.31,0,0,0,2.21-1.15Zm-7.77-9.65c-6.05,2.45-7.54,3.69-7.54,6.38a3.41,3.41,0,0,0,3.41,3.7,5.45,5.45,0,0,0,4.13-2.16ZM266.65,429.71c-2.11-4.95-3.07-6-5.18-6h-.67v-.92h13.25v.87h-.92c-1.72,0-2.73.57-2.73,1.53a5.31,5.31,0,0,0,.62,2.16l8.35,19.2,7-17.71a9.71,9.71,0,0,0,.92-3.26c0-1.25-.92-1.87-2.69-1.87h-.63v-.92h10v.87c-2.69.09-3.84,1.39-5.67,6.09l-10,25.54h-.43Zm44.21,22c-1.49,2.3-3.12,3.41-5,3.41-1.53,0-2.45-1.15-2.73-3.46-2.69,2.5-4.61,3.46-6.77,3.46-2.74,0-4.85-2.35-4.85-5.43,0-2.49,1.34-4.51,4-6a51.63,51.63,0,0,1,7.64-3.26v-1.06c0-2.54-.1-3.17-.53-4.13a3.22,3.22,0,0,0-3-1.53c-2,0-3.41,1.2-3.41,3v.72A3.31,3.31,0,0,1,296,439a1.92,1.92,0,0,1-1.83,1.3,2.25,2.25,0,0,1-2.06-2.36c0-3,3.75-5.52,8.16-5.52,4.75,0,6.77,2.07,6.77,6.87V450c0,1.92.19,2.4,1,2.4a3.31,3.31,0,0,0,2.21-1.15Zm-7.77-9.65c-6,2.45-7.54,3.7-7.54,6.39a3.4,3.4,0,0,0,3.41,3.69,5.45,5.45,0,0,0,4.13-2.16Zm16.17-5.62c2.83-2.83,5-4.08,7.39-4.08a5,5,0,0,1,4.52,2.79c.62,1.44.81,2.78.81,6v7.58c.1,3.65.1,3.65.39,4.28s1,1,2.06,1h.77v.81H324.88V454h.91c1.1,0,1.73-.29,2-1s.28-.63.38-4.28V441c0-4.46-.72-5.66-3.36-5.66-1.82,0-3.07.67-5.57,2.88v10.51a14,14,0,0,0,.38,4.23,2.13,2.13,0,0,0,2,1h1v.81h-10.8V454h.86c2.36,0,2.79-.77,2.79-5.09v-9.75c0-2.73-.34-3.36-1.78-3.36a3.25,3.25,0,0,0-1,.15l-.53.19-.33-.67c3.55-1.49,4.08-1.73,7.39-3.36Zm36.62,9.85c-1.72,5.8-4.8,8.83-8.92,8.83a9.19,9.19,0,0,1-6.92-3.56,12.49,12.49,0,0,1-2.3-7.63c0-6.77,4.18-11.57,10.13-11.57,4,0,7.25,2.26,7.25,5a2.15,2.15,0,0,1-2.36,2.12c-1.48,0-2.35-.82-2.59-2.5-.29-2-1.1-2.83-2.93-2.83-3.31,0-5.47,3.26-5.47,8.21,0,5.33,2.59,8.73,6.63,8.73,3.12,0,5.47-1.87,6.67-5.23Zm24-2.93c0,6.57-4.71,11.76-10.61,11.76s-10.32-4.75-10.32-11.09a12.31,12.31,0,0,1,3.36-8.55,9.65,9.65,0,0,1,7.39-3.12C375.56,432.39,379.84,437.05,379.84,443.39Zm-16.61.09c0,5.91,2.69,10,6.53,10,3.5,0,5.76-3.36,5.76-8.6,0-6.38-2.64-10.8-6.53-10.8C365.34,434.07,363.23,437.53,363.23,443.48Zm38,2.88c0,4.71.28,5.62,1.92,5.62a3.84,3.84,0,0,0,1.34-.24l.29.86a62.27,62.27,0,0,0-7.35,2.69v-4.51c-1.44,1.58-1.68,1.82-2.4,2.5a7.1,7.1,0,0,1-4.7,1.87,4.69,4.69,0,0,1-4.61-3,12.75,12.75,0,0,1-.77-5.37v-8.17c0-4.32-.43-5.08-2.73-5.08h-.68v-.82h7.2v14c0,3.79,1,5.28,3.41,5.28,1.64,0,2.55-.48,5.28-2.83V438.63c0-4.32-.43-5.08-2.78-5.08h-1.15v-.82h7.73Zm8.25-7.25a18.37,18.37,0,0,0-1.87-4,3.43,3.43,0,0,0-2.5-1.49h-.48v-.86h9.94v.86h-.43c-1.2,0-1.78.48-1.78,1.44a7.24,7.24,0,0,0,.62,2.4l4,10.37,4.27-11.42a4.49,4.49,0,0,0,.43-1.54c0-.77-.62-1.25-1.53-1.25h-.58v-.86h7v.86l-.58.1c-1.25.14-2,1.1-3.07,3.94l-6.48,17.66h-.91Zm35.19,7.21c-1.2,5.47-4.56,8.83-8.88,8.83-5.09,0-8.89-4.9-8.89-11.38s3.94-11.38,9.17-11.38c4.76,0,7.83,3.51,7.92,9.12H430.47c.1,5.76,2.84,9.7,6.73,9.7,2.73,0,5-1.87,6.76-5.47ZM439,439.59c-.09-3.21-1.58-5.08-4-5.08s-4,1.87-4.42,5.08Zm15.12,9.32c0,4.32.38,5.09,2.78,5.09h1.45v.81H446.51V454h1.05c2.31,0,2.74-.77,2.74-5.09v-9.75c0-2.73-.34-3.36-1.78-3.36a3.46,3.46,0,0,0-1,.15l-.53.19-.28-.67c3.55-1.49,4.08-1.73,7.34-3.36v4c1.78-2.55,3.46-3.75,5.33-3.75a2.64,2.64,0,0,1,2.93,2.55,2.17,2.17,0,0,1-2.21,2.3c-.91,0-1.25-.19-2.26-1.25a1.06,1.06,0,0,0-.72-.28c-1,0-1.92.91-3.07,2.92Zm9.12,10.7c2.59-.81,4-2.49,4.08-4.85a6.35,6.35,0,0,1-1.39.2,2.61,2.61,0,0,1-2.55-2.6,2.55,2.55,0,0,1,2.64-2.54c1.92,0,3.36,1.77,3.36,4.18,0,3.31-2.4,5.8-6.14,6.43Zm51.84-11.76a15.63,15.63,0,0,1-12.91,7.3,16.35,16.35,0,1,1,.62-32.69,16.93,16.93,0,0,1,6.77,1.34c1.92.91,2,.91,2.4.91.87,0,1.3-.57,1.49-1.92h1l.29,10.76-.87.09a9.43,9.43,0,0,0-2.93-6.19,10.77,10.77,0,0,0-7.63-3.22c-6.91,0-11.42,5.81-11.42,14.69,0,8.64,4.46,14.12,11.52,14.12,4.41,0,7.92-1.88,10.85-5.72ZM538,451.74c-1.48,2.3-3.12,3.41-5,3.41-1.53,0-2.45-1.15-2.73-3.46-2.69,2.5-4.61,3.46-6.77,3.46-2.74,0-4.85-2.35-4.85-5.43,0-2.49,1.34-4.51,4-6a51.63,51.63,0,0,1,7.64-3.26v-1.06c0-2.54-.1-3.17-.53-4.13a3.21,3.21,0,0,0-3-1.53c-2,0-3.41,1.2-3.41,3v.72a3.31,3.31,0,0,1-.14,1.44,1.92,1.92,0,0,1-1.82,1.3,2.25,2.25,0,0,1-2.07-2.36c0-3,3.75-5.52,8.16-5.52,4.76,0,6.77,2.07,6.77,6.87V450c0,1.92.19,2.4,1,2.4a3.31,3.31,0,0,0,2.21-1.15Zm-7.77-9.65c-6.05,2.45-7.54,3.7-7.54,6.39a3.4,3.4,0,0,0,3.41,3.69,5.45,5.45,0,0,0,4.13-2.16Zm16.17-5.62c2.83-2.83,5-4.08,7.39-4.08a5,5,0,0,1,4.52,2.79c.62,1.44.81,2.78.81,6v7.58c.1,3.65.1,3.65.39,4.28s1,1,2.06,1h.77v.81H552V454h.91c1.11,0,1.73-.29,2-1s.29-.63.38-4.28V441c0-4.46-.72-5.66-3.36-5.66-1.82,0-3.07.67-5.57,2.88v10.51a13.85,13.85,0,0,0,.39,4.23,2.1,2.1,0,0,0,2,1h1v.81H539V454h.87c2.35,0,2.78-.77,2.78-5.09v-9.75c0-2.73-.34-3.36-1.78-3.36a3.25,3.25,0,0,0-1,.15l-.52.19-.34-.67c3.55-1.49,4.08-1.73,7.39-3.36Zm37.87,15.27c-1.48,2.3-3.12,3.41-5,3.41q-2.29,0-2.73-3.46c-2.69,2.5-4.61,3.46-6.77,3.46-2.74,0-4.85-2.35-4.85-5.43,0-2.49,1.35-4.51,4-6a50.86,50.86,0,0,1,7.63-3.26v-1.06c0-2.54-.1-3.17-.53-4.13a3.21,3.21,0,0,0-3-1.53c-2,0-3.4,1.2-3.4,3v.72a3.1,3.1,0,0,1-.15,1.44,1.92,1.92,0,0,1-1.82,1.3,2.25,2.25,0,0,1-2.07-2.36c0-3,3.75-5.52,8.16-5.52,4.76,0,6.77,2.07,6.77,6.87V450c0,1.92.19,2.4,1,2.4a3.31,3.31,0,0,0,2.21-1.15Zm-7.77-9.65c-6,2.45-7.54,3.7-7.54,6.39a3.4,3.4,0,0,0,3.41,3.69,5.45,5.45,0,0,0,4.13-2.16ZM601,452c-2.36,2.21-4.32,3.17-6.53,3.17-4.66,0-8.31-4.66-8.31-10.66,0-6.53,4.56-12.1,9.89-12.1,1.73,0,2.88.39,4.95,1.73v-5c0-2.79-.34-3.41-1.73-3.41a2.76,2.76,0,0,0-1,.19l-.53.15-.34-.68c3.56-1.48,4.09-1.72,7.4-3.36v24.06c.05,4.12.05,4.27.38,4.89a1.7,1.7,0,0,0,1.49.91,3.06,3.06,0,0,0,1.25-.24l.33.82a43.52,43.52,0,0,0-7.24,2.83Zm0-11.43c0-2.49-.24-3.69-1-4.65a4.66,4.66,0,0,0-3.75-1.87c-3.46,0-5.86,3.6-5.86,8.73,0,5.62,2.45,9.22,6.25,9.22a5.57,5.57,0,0,0,4.32-1.87Zm29.18,11.19c-1.49,2.3-3.12,3.41-5,3.41q-2.31,0-2.74-3.46c-2.69,2.5-4.61,3.46-6.77,3.46-2.73,0-4.84-2.35-4.84-5.43,0-2.49,1.34-4.51,4-6a51.36,51.36,0,0,1,7.63-3.26v-1.06c0-2.54-.09-3.17-.53-4.13a3.19,3.19,0,0,0-3-1.53c-2,0-3.41,1.2-3.41,3v.72a3.31,3.31,0,0,1-.14,1.44,1.92,1.92,0,0,1-1.83,1.3,2.25,2.25,0,0,1-2.06-2.36c0-3,3.74-5.52,8.16-5.52,4.75,0,6.77,2.07,6.77,6.87V450c0,1.92.19,2.4,1,2.4a3.31,3.31,0,0,0,2.21-1.15Zm-7.78-9.65c-6,2.45-7.53,3.7-7.53,6.39a3.4,3.4,0,0,0,3.4,3.69,5.43,5.43,0,0,0,4.13-2.16ZM198.06,692.81v-.91h1.1c2.41,0,3.27-1.1,3.27-4.08v-22c0-3-.86-4.12-3.27-4.12h-1.1v-.92h13.83v.92h-1.11c-2.45,0-3.31,1.1-3.31,4.12v20.79c0,2.74.14,3.17,1,3.55a11.94,11.94,0,0,0,3,.29h4c4.7,0,7.05-1.78,8.93-6.67l1,.33-2.84,8.69Zm51.12-11.42c0,6.57-4.7,11.76-10.61,11.76s-10.32-4.75-10.32-11.09a12.31,12.31,0,0,1,3.36-8.55,9.67,9.67,0,0,1,7.4-3.12C244.91,670.39,249.18,675.05,249.18,681.39Zm-16.61.09c0,5.91,2.69,10,6.53,10,3.51,0,5.76-3.36,5.76-8.6,0-6.38-2.64-10.8-6.53-10.8C234.68,672.07,232.57,675.53,232.57,681.48Zm26.4-7c2.83-2.83,5-4.08,7.4-4.08a5,5,0,0,1,4.51,2.79c.62,1.44.81,2.78.81,6v7.58c.1,3.65.1,3.65.39,4.28s1,1,2.06,1h.77v.81H264.59V692h.91c1.11,0,1.73-.29,2-1s.29-.63.38-4.28V679c0-4.46-.72-5.66-3.36-5.66-1.82,0-3.07.67-5.57,2.88v10.51a13.85,13.85,0,0,0,.39,4.23,2.1,2.1,0,0,0,2,1h1v.81h-10.8V692h.87c2.35,0,2.78-.77,2.78-5.09v-9.75c0-2.73-.34-3.36-1.78-3.36a3.25,3.25,0,0,0-1,.15l-.52.19-.34-.67c3.55-1.49,4.08-1.73,7.39-3.36ZM292.28,690c-2.35,2.21-4.32,3.17-6.52,3.17-4.66,0-8.31-4.66-8.31-10.66,0-6.53,4.56-12.1,9.89-12.1,1.73,0,2.88.39,4.94,1.73v-5c0-2.79-.33-3.41-1.72-3.41a2.72,2.72,0,0,0-1,.19l-.53.15-.34-.68c3.56-1.48,4.08-1.72,7.4-3.36v24.06c0,4.12,0,4.27.38,4.89a1.69,1.69,0,0,0,1.49.91,3.06,3.06,0,0,0,1.25-.24l.33.82a44,44,0,0,0-7.25,2.83Zm0-11.43c0-2.49-.24-3.69-1-4.65a4.62,4.62,0,0,0-3.74-1.87c-3.46,0-5.86,3.6-5.86,8.73,0,5.62,2.45,9.22,6.24,9.22a5.56,5.56,0,0,0,4.32-1.87Zm30.48,2.84c0,6.57-4.7,11.76-10.6,11.76s-10.33-4.75-10.33-11.09a12.27,12.27,0,0,1,3.37-8.55,9.65,9.65,0,0,1,7.39-3.12C318.49,670.39,322.76,675.05,322.76,681.39Zm-16.6.09c0,5.91,2.68,10,6.52,10,3.51,0,5.76-3.36,5.76-8.6,0-6.38-2.64-10.8-6.52-10.8C308.27,672.07,306.16,675.53,306.16,681.48Zm26.39-7c2.84-2.83,5.05-4.08,7.4-4.08a4.94,4.94,0,0,1,4.51,2.79c.62,1.44.82,2.78.82,6v7.58c.09,3.65.09,3.65.38,4.28s1,1,2.06,1h.77v.81H338.17V692h.91c1.11,0,1.73-.29,2-1s.29-.63.38-4.28V679c0-4.46-.72-5.66-3.36-5.66-1.82,0-3.07.67-5.57,2.88v10.51a13.85,13.85,0,0,0,.39,4.23,2.13,2.13,0,0,0,2,1h1v.81H325.11V692H326c2.35,0,2.78-.77,2.78-5.09v-9.75c0-2.73-.33-3.36-1.77-3.36a3.15,3.15,0,0,0-1,.15l-.53.19-.34-.67c3.55-1.49,4.08-1.73,7.39-3.36Zm19.2,23.14c2.6-.81,4-2.49,4.08-4.85a6.27,6.27,0,0,1-1.39.2,2.6,2.6,0,0,1-2.54-2.6,2.55,2.55,0,0,1,2.64-2.54c1.92,0,3.36,1.77,3.36,4.18,0,3.31-2.4,5.8-6.15,6.43Zm44.41-36.82h11v.92H406c-2.4,0-3.26,1.1-3.26,4.12v14.36c0,3.79-.48,6-1.73,8.06-2.06,3.31-5.57,4.9-10.85,4.9-5.09,0-8.69-1.73-10.7-5.09A12,12,0,0,1,378,682.3c0-.72,0-2,0-5.57v-10.9c0-3-.86-4.12-3.26-4.12h-1.1v-.92h13.82v.92h-1.1c-2.45,0-3.32,1.1-3.32,4.12v15.46c0,3.36.39,5,1.49,6.53a8.43,8.43,0,0,0,6.72,3c3.89,0,7.16-1.88,8.45-4.76a14.23,14.23,0,0,0,.91-5.85V665.83c0-3-.86-4.12-3.26-4.12h-1.1Zm18.43,13.68c2.83-2.83,5-4.08,7.39-4.08a4.94,4.94,0,0,1,4.51,2.79c.63,1.44.82,2.78.82,6v7.58c.09,3.65.09,3.65.38,4.28s1,1,2.07,1h.76v.81H420.2V692h.92c1.1,0,1.72-.29,2-1s.29-.63.38-4.28V679c0-4.46-.71-5.66-3.36-5.66-1.82,0-3.07.67-5.56,2.88v10.51A14,14,0,0,0,415,691a2.13,2.13,0,0,0,2,1h1v.81h-10.8V692H408c2.35,0,2.78-.77,2.78-5.09v-9.75c0-2.73-.33-3.36-1.77-3.36a3.15,3.15,0,0,0-1,.15l-.53.19-.34-.67c3.56-1.49,4.08-1.73,7.4-3.36Zm25,12.44c0,4.32.43,5.09,2.78,5.09h.77v.81h-11V692H433c1.44,0,2.16-.44,2.49-1.54.15-.43.15-.48.24-3.55v-9.75c0-2.73-.33-3.36-1.72-3.36a3.48,3.48,0,0,0-1,.15l-.53.19-.29-.67c3.55-1.49,4.08-1.73,7.35-3.36Zm.24-23.67a2.48,2.48,0,1,1-2.45-2.45A2.48,2.48,0,0,1,439.79,663.24Zm11.56,7.49h4.56v1.78h-4.56v13.58c0,2.16.24,3.07,1,3.75a2.31,2.31,0,0,0,1.3.48c1.2,0,2.16-.58,3.21-2.07l.68.58c-1.49,2.93-3.27,4.32-5.62,4.32a4.09,4.09,0,0,1-4-2.45,11.57,11.57,0,0,1-.62-4.8V672.51h-3.46v-.92c3.89-1.72,5.19-3.17,6.39-7.05h1.1Zm25.78,13.59c-1.2,5.47-4.56,8.83-8.88,8.83-5.09,0-8.88-4.9-8.88-11.38s3.94-11.38,9.17-11.38c4.75,0,7.82,3.51,7.92,9.12H463c.1,5.76,2.83,9.7,6.72,9.7,2.74,0,5-1.87,6.77-5.47Zm-5.66-6.73c-.1-3.21-1.59-5.08-4-5.08s-4,1.87-4.41,5.08ZM494.94,690c-2.36,2.21-4.32,3.17-6.53,3.17-4.66,0-8.31-4.66-8.31-10.66,0-6.53,4.56-12.1,9.89-12.1,1.73,0,2.88.39,4.95,1.73v-5c0-2.79-.34-3.41-1.73-3.41a2.76,2.76,0,0,0-1,.19l-.53.15-.33-.68c3.55-1.48,4.08-1.72,7.39-3.36v24.06c0,4.12,0,4.27.38,4.89a1.7,1.7,0,0,0,1.49.91,3,3,0,0,0,1.25-.24l.34.82a43.65,43.65,0,0,0-7.25,2.83Zm0-11.43c0-2.49-.24-3.69-1-4.65a4.66,4.66,0,0,0-3.75-1.87c-3.45,0-5.85,3.6-5.85,8.73,0,5.62,2.45,9.22,6.24,9.22a5.56,5.56,0,0,0,4.32-1.87Zm30.48,9.27c0,3,.86,4.08,3.36,4.08h1.15v.91H516v-.91h1.1c2.4,0,3.27-1.1,3.27-4.08v-22c0-3-.92-4.12-3.27-4.12H516v-.92h13.92v.92l-1,0c-1.87.15-2.21.24-2.74.82s-.81,1.53-.81,3.26v10.28a74.13,74.13,0,0,0,8.45-8.45c2.16-2.64,2.92-3.89,2.92-4.66,0-1-.48-1.15-2.78-1.29v-.92h11.66v1H545a7.8,7.8,0,0,0-3.6,1.35,21.64,21.64,0,0,0-3.45,3.41c-3.7,4-4,4.36-7,7.48l-1,1,11,11.43c4.08,4.17,6.19,5.42,9.12,5.47v.91H534.78v-.91h.77c1.15,0,2-.53,2-1.25s-1.1-2.11-3.26-4.32l-8.83-9Zm33.45-.91c0,4.32.43,5.09,2.79,5.09h.76v.81H551.48V692h.86c1.44,0,2.16-.44,2.5-1.54.14-.43.14-.48.24-3.55v-9.75c0-2.73-.34-3.36-1.73-3.36a3.58,3.58,0,0,0-1,.15l-.52.19-.29-.67c3.55-1.49,4.08-1.73,7.34-3.36Zm.24-23.67a2.47,2.47,0,1,1-2.45-2.45A2.47,2.47,0,0,1,559.11,663.24Zm12,11.23c2.83-2.83,5-4.08,7.39-4.08a5,5,0,0,1,4.52,2.79c.62,1.44.81,2.78.81,6v7.58c.1,3.65.1,3.65.39,4.28s1,1,2.06,1h.77v.81H576.73V692h.91c1.1,0,1.73-.29,2-1s.28-.63.38-4.28V679c0-4.46-.72-5.66-3.36-5.66-1.82,0-3.07.67-5.57,2.88v10.51a14,14,0,0,0,.38,4.23,2.13,2.13,0,0,0,2,1h1v.81h-10.8V692h.86c2.36,0,2.79-.77,2.79-5.09v-9.75c0-2.73-.34-3.36-1.78-3.36a3.25,3.25,0,0,0-1,.15l-.53.19-.33-.67c3.55-1.49,4.08-1.73,7.39-3.36Zm29.47,13.3c4.85,0,7.35,1.68,7.35,5,0,4.37-4.9,7.78-11.19,7.78-4.56,0-8.54-2-8.54-4.27,0-1,.43-1.63,3.89-5.43-1.54-.33-2.16-.91-2.16-1.87s1-2.45,3.5-5.23a6.26,6.26,0,0,1-3.46-5.86,7.3,7.3,0,0,1,7.64-7.49,8,8,0,0,1,4.56,1.3H608v2.59h-3.4a7.35,7.35,0,0,1,.86,3.46,6.93,6.93,0,0,1-2.4,5.28,7.67,7.67,0,0,1-5.47,1.78,5.91,5.91,0,0,1-2.83-.48c-1.11,1.72-1.3,2.16-1.3,2.59s1,.86,3,.86Zm-4,3.7a17.35,17.35,0,0,1-3.07-.24c-1.3,1.68-1.64,2.4-1.64,3.36,0,1.87,2.69,3.17,6.58,3.17,4.32,0,7.73-1.83,7.73-4.18,0-.67-.48-1.25-1.39-1.58-.67-.29-1.59-.34-4.18-.44Zm-2.5-15a9.61,9.61,0,0,0,1.54,5.28,2.9,2.9,0,0,0,2.5,1.49c2,0,3.12-1.68,3.12-4.51,0-3.75-1.83-6.72-4-6.72C595.25,672,594.1,673.71,594.1,676.49ZM625,690c-2.36,2.21-4.32,3.17-6.53,3.17-4.66,0-8.31-4.66-8.31-10.66,0-6.53,4.56-12.1,9.89-12.1,1.73,0,2.88.39,4.95,1.73v-5c0-2.79-.34-3.41-1.73-3.41a2.76,2.76,0,0,0-1,.19l-.53.15-.34-.68c3.56-1.48,4.09-1.72,7.4-3.36v24.06c.05,4.12.05,4.27.38,4.89a1.7,1.7,0,0,0,1.49.91,3.06,3.06,0,0,0,1.25-.24l.33.82a43.52,43.52,0,0,0-7.24,2.83Zm0-11.43c0-2.49-.24-3.69-1-4.65a4.66,4.66,0,0,0-3.75-1.87c-3.46,0-5.86,3.6-5.86,8.73,0,5.62,2.45,9.22,6.25,9.22a5.57,5.57,0,0,0,4.32-1.87Zm30.48,2.84c0,6.57-4.71,11.76-10.61,11.76s-10.32-4.75-10.32-11.09a12.27,12.27,0,0,1,3.36-8.55,9.65,9.65,0,0,1,7.39-3.12C651.22,670.39,655.5,675.05,655.5,681.39Zm-16.61.09c0,5.91,2.69,10,6.52,10,3.51,0,5.77-3.36,5.77-8.6,0-6.38-2.65-10.8-6.53-10.8C641,672.07,638.89,675.53,638.89,681.48Zm26.4-6.91c3.07-3.12,4.84-4.18,7.15-4.18,2.49,0,4.08,1.35,5.14,4.37,3.21-3.41,4.79-4.37,7.2-4.37a5.15,5.15,0,0,1,4.51,2.45c.91,1.49,1,2.07,1,6.39v7.53c.09,3.65.09,3.65.38,4.28s.91,1,2,1h.81v.81H683.34V692h.72c1.1,0,1.77-.29,2.06-1s.29-.63.38-4.28V679c0-2.49-.09-3.31-.52-4.08a3,3,0,0,0-2.88-1.58c-1.69,0-2.65.53-5.33,2.93v10.46c.09,3.65.09,3.65.38,4.28s1,1,2.06,1H681v.81H670.71V692h.86c1.11,0,1.73-.29,2-1s.29-.63.38-4.28V679c0-2.49-.19-3.69-.72-4.46a3,3,0,0,0-2.59-1.2c-1.73,0-3.65,1.06-5.37,3v10.41a13.74,13.74,0,0,0,.38,4.23,2.08,2.08,0,0,0,2,1h1v.81H657.89V692h.82c2.35,0,2.78-.77,2.78-5.09v-9.75c0-2.73-.33-3.36-1.77-3.36a2.93,2.93,0,0,0-1,.15l-.53.19-.34-.67c3.56-1.49,4.08-1.73,7.4-3.36Z" transform="translate(-65.46 -82.08)"/></svg>