<?xml version="1.0" encoding="utf-8"?>
<!-- Generator: Adobe Illustrator 25.2.3, SVG Export Plug-In . SVG Version: 6.00 Build 0)  -->
<svg version="1.1" id="SVG_1_" xmlns="http://www.w3.org/2000/svg" xmlns:xlink="http://www.w3.org/1999/xlink" x="0px" y="0px"
	 viewBox="0 0 890.7 841.9" style="enable-background:new 0 0 890.7 841.9;" xml:space="preserve">
<g>
	<path d="M240.1,136.1c-2.4,1.3-5.7,1.9-9.8,1.9c-5.9,0-10.3-1.2-13-3.5c-2.2-1.8-3.4-4.6-3.7-8.2h-17.2c0.2,3.3,0.7,6.1,1.6,8.4
		s2.4,4.4,4.3,6.5c5.3,5.7,14.1,8.5,26.3,8.5c9.9,0,17.7-1.7,23.5-5.2c6.3-3.8,9.5-9.3,9.5-16.6c0-2.8-0.6-5.4-1.8-7.8
		c-1.2-2.4-2.8-4.3-4.9-5.6c-2-1.3-4.4-2.3-7.1-3.1c-2.8-0.8-7.3-1.7-13.6-2.7c-8.4-1.4-13.6-2.4-15.8-3c-3.1-0.8-4.6-2.6-4.6-5.2
		c0-4.4,4.7-6.6,14-6.6c4.9,0,8.5,0.8,10.8,2.3c2.1,1.3,3.3,3.4,3.7,6.3h16.8c-0.3-5-2.2-9.2-5.7-12.8c-5.1-5.1-13.6-7.6-25.4-7.6
		c-13.3,0-22.2,3.1-27,9.3c-2.5,3.2-3.7,7-3.7,11.2c0,2.8,0.6,5.4,1.8,7.7c1.2,2.3,2.9,4.2,5.1,5.5c2.2,1.4,4.4,2.3,6.7,2.9
		c2.2,0.6,7,1.5,14.2,2.6c8,1.2,13.1,2.3,15.5,3.4c2.4,1.1,3.6,2.8,3.6,5.1C244.2,132.6,242.8,134.7,240.1,136.1z"/>
	<path d="M276.9,142.4c5.8,4.8,13.4,7.2,22.8,7.2c9.3,0,16.9-2.4,22.7-7.2c5.5-4.6,8.3-10.8,8.3-18.5c0-7.7-2.7-13.9-8.3-18.5
		c-5.9-4.8-13.5-7.2-22.8-7.2c-9.3,0-16.9,2.5-22.7,7.2c-5.6,4.6-8.4,10.6-8.4,18.1C268.5,131.4,271.3,137.7,276.9,142.4z
		 M287.8,112.8c2.9-2.9,6.8-4.4,11.8-4.4s8.9,1.4,11.7,4.4c2.7,2.8,4,6.6,4,11.4c0,4.5-1.3,8.2-4,11c-2.9,3-6.8,4.5-11.7,4.5
		c-5,0-8.9-1.5-11.8-4.5c-2.7-2.8-4-6.5-4-11.2S285.1,115.6,287.8,112.8z"/>
	<polygon points="343.2,129.3 354.2,129.3 356.6,99.2 356.6,83.9 340.6,83.9 340.6,99.3 343.2,129.4 	"/>
	<rect x="341.1" y="133.6" width="15.3" height="14.3"/>
	<polygon points="392,147.9 406.6,147.9 406.6,122.6 435.8,83.9 417.7,83.9 399.6,109.6 381,83.9 362.1,83.9 392,122.6 	"/>
	<path d="M447.1,142.4c5.8,4.8,13.4,7.2,22.8,7.2c9.3,0,16.9-2.4,22.7-7.2c5.5-4.6,8.3-10.8,8.3-18.5c0-7.7-2.7-13.9-8.3-18.5
		c-5.9-4.8-13.5-7.2-22.8-7.2s-16.9,2.5-22.7,7.2c-5.6,4.6-8.4,10.6-8.4,18.1C438.7,131.4,441.5,137.7,447.1,142.4z M458.1,112.8
		c2.9-2.9,6.8-4.4,11.8-4.4c4.9,0,8.8,1.4,11.7,4.4c2.7,2.8,4,6.6,4,11.4c0,4.5-1.3,8.2-4,11c-2.9,3-6.8,4.5-11.7,4.5
		c-5,0-8.9-1.5-11.8-4.5c-2.7-2.8-4-6.5-4-11.2S455.4,115.6,458.1,112.8z"/>
	<path d="M519.6,140.7c7.2,6,16.6,9,27.9,9c11.2,0,20.4-3,27.7-9c7.5-6.2,11.2-14.3,11.2-24.4c0-11-4.2-19.8-12.6-26.2
		c-6.9-5.3-15.7-8-26.4-8c-6.4,0-12.2,1-17.3,2.9c-6.6,2.5-11.9,6.5-15.7,11.8c-4,5.5-6,11.9-6,19.1
		C508.4,126.3,512.2,134.6,519.6,140.7z M531.3,99.8c4.2-3.9,9.5-5.9,16-5.9c6.4,0,11.8,1.9,16.1,5.9c4.5,4.1,6.7,9.5,6.7,16.2
		c0,6.2-2,11.3-5.9,15.4c-4.3,4.5-9.9,6.7-16.8,6.7s-12.6-2.3-16.9-6.7c-3.9-4.1-5.9-9.3-5.9-15.6C524.6,109.3,526.8,104,531.3,99.8
		z"/>
	<polygon points="611.2,104.5 646.9,147.9 663,147.9 663,83.9 648.8,83.9 648.8,127.2 613.1,83.9 596.9,83.9 596.9,147.9 
		611.2,147.9 	"/>
	<polygon points="678.5,129.3 689.5,129.3 691.9,99.2 691.9,83.9 675.9,83.9 675.9,99.3 678.5,129.4 	"/>
	<rect x="676.4" y="133.6" width="15.3" height="14.3"/>
	<polygon points="123.5,377.6 87.5,377.6 87.5,325.8 72.9,325.8 72.9,389.8 123.5,389.8 	"/>
	<path d="M147.1,375.4h30l6.8,14.4h17.3l-31.4-64h-14.6l-30.7,64h16.1L147.1,375.4z M162,342.7l9.9,21.3h-19.5L162,342.7z"/>
	<polygon points="239.2,372.7 218.7,325.8 201.1,325.8 230.5,389.8 247.1,389.8 275.3,325.8 258.8,325.8 	"/>
	<path d="M297.5,375.4h30l6.8,14.4h17.3l-31.4-64h-14.6l-30.7,64H291L297.5,375.4z M312.4,342.7l9.9,21.3h-19.5L312.4,342.7z"/>
	<polygon points="434.4,377.6 398.4,377.6 398.4,325.8 383.8,325.8 383.8,389.8 434.4,389.8 	"/>
	<path d="M494.8,389.8h17.3l-31.4-64h-14.6l-30.7,64h16.1l6.5-14.4h30L494.8,389.8z M463.3,364l9.6-21.3l9.9,21.3H463.3z"/>
	<path d="M587.5,371.3c0.6,1.6,1.1,4.1,1.4,7.5c0.5,5.2,1,8.8,1.5,10.8h16.3c-0.9-1.7-1.5-3.2-1.7-4.4c-0.3-1.2-0.6-4.1-0.9-8.6
		c-0.4-4.8-0.9-8.3-1.7-10.5c-0.8-2.1-2.1-3.8-3.9-5c-1.2-0.8-3-1.4-5.5-2c3.3-1.2,5.7-2.4,7.4-3.8c3.7-3,5.5-7.2,5.5-12.5
		c0-3-0.6-5.7-1.8-8.2c-1.5-2.9-3.6-5.1-6.4-6.6c-2.9-1.4-8.2-2.2-15.8-2.2h-37.6v63.8h14.6v-24.1h17.8c3.7,0,6.3,0.6,8,1.9
		C586,368.4,586.9,369.7,587.5,371.3z M558.9,354v-15.9h19c3.3,0,5.7,0.3,7,0.7c3.2,1,4.8,3.4,4.8,7c0,3.6-1.5,6.1-4.7,7.4
		c-1.3,0.5-3.7,0.8-7.1,0.8H558.9z"/>
	<path d="M647.3,379.8c-7.1,0-12-2.2-14.6-6.7c-1.4-2.4-2.1-6.1-2.1-11v-36.3H616v36.9c0,3.6,0.1,6.5,0.4,8.5
		c0.9,7,4.7,12.4,11.5,16.2c5.1,2.8,11.6,4.2,19.4,4.2c7.9,0,14.4-1.4,19.4-4.2c6.7-3.7,10.6-9.1,11.5-15.9c0.3-2.1,0.4-4.9,0.4-8.2
		v-37.5h-14.7v36.3c0,4.3-0.5,7.5-1.4,9.7C660.2,377.1,655.1,379.8,647.3,379.8z"/>
	<polygon points="749,338.1 749,325.8 691.3,325.8 691.3,389.8 749,389.8 749,377.5 705.9,377.5 705.9,362.5 743.8,362.5 
		743.8,351.1 705.9,351.1 705.9,338.1 	"/>
	<path d="M820.1,385.2c-0.3-1.2-0.6-4.1-0.9-8.6c-0.4-4.8-0.9-8.4-1.7-10.5c-0.8-2.1-2.1-3.8-3.9-5c-1.2-0.8-3-1.4-5.5-2
		c3.3-1.2,5.7-2.4,7.4-3.8c3.7-3,5.5-7.2,5.5-12.5c0-3-0.6-5.7-1.8-8.2c-1.5-2.9-3.6-5.1-6.4-6.6c-2.9-1.4-8.2-2.2-15.8-2.2h-37.6
		v63.8H774v-24.1h17.8c3.7,0,6.3,0.6,8,1.9c1.3,1,2.2,2.3,2.8,3.9c0.6,1.6,1.1,4.1,1.4,7.5c0.5,5.2,1,8.8,1.5,10.8h16.3
		C820.9,387.9,820.3,386.4,820.1,385.2z M800.1,353.2c-1.3,0.5-3.7,0.8-7.1,0.8h-19v-15.9h19c3.3,0,5.7,0.3,7,0.7
		c3.2,1,4.8,3.4,4.8,7C804.8,349.4,803.3,351.9,800.1,353.2z"/>
	<path d="M136.9,601.8c0,3.6,0,6.2-0.2,7.5s-0.5,2.7-1,3.9c-1.3,3.1-4.2,4.6-8.7,4.6c-4.8,0-8-1.9-9.4-5.6c-0.6-1.7-1.1-5-1.3-9.8
		h-14.6c0,6.3,0.7,11.2,2.1,14.7c1.4,3.5,3.9,6.4,7.5,8.6c4.1,2.5,9.2,3.8,15.5,3.8c5.7,0,10.6-1.1,14.5-3.3
		c5.7-3.2,8.9-7.8,9.7-13.9c0.2-1.7,0.3-4.8,0.3-9.2v-39.3v-0.1h-14.4V601.8z"/>
	<path d="M187.8,563.8l-30.7,64h16.1l6.5-14.4h30l6.8,14.4h17.3l-31.4-64H187.8z M185,602l9.6-21.3l9.9,21.3H185z"/>
	<polygon points="302.9,615.5 256.5,615.5 301.6,576.2 301.6,563.8 237.3,563.8 237.3,576 281.2,576 235.9,615.7 235.9,627.7 
		302.9,627.7 	"/>
	<polygon points="372.9,563.8 308.6,563.8 308.6,576 352.5,576 307.2,615.7 307.2,627.7 374.2,627.7 374.2,615.5 327.8,615.5 
		372.9,576.2 	"/>
	<path d="M444.6,573.7c6.2,0,11.3,1.8,15.3,5.4c1.4,1.2,2.4,2.5,3.1,3.6s1.3,2.7,1.8,4.6h17c-1-6.2-3.6-11.3-7.5-15.2
		c-6.8-6.8-16.6-10.2-29.4-10.2c-10.7,0-19.6,2.7-26.6,8.1c-8.3,6.4-12.5,14.9-12.5,25.5c0,5.3,1.1,10.1,3.3,14.5
		c2.3,4.5,5.6,8.4,9.8,11.6c6.9,5.3,15.6,8,26.2,8c10.7,0,19.2-2.4,25.5-7.3c5.9-4.6,9.6-10.8,11.2-18.6h-17c-1,3.5-2.6,6.3-4.7,8.3
		c-3.9,3.9-8.9,5.8-15.2,5.8c-7,0-12.6-2.2-17-6.8c-3.9-4.1-5.9-9.2-5.9-15.3c0-6.8,2.2-12.2,6.6-16.3
		C432.7,575.6,438.1,573.7,444.6,573.7z"/>
	<path d="M506.7,613.4h30l6.8,14.4h17.3l-31.4-64h-14.6l-30.7,64h16.1L506.7,613.4z M521.6,580.7l9.9,21.3H512L521.6,580.7z"/>
	<path d="M627.2,614.6c-0.4-4.8-0.9-8.3-1.7-10.5c-0.8-2.1-2.1-3.8-3.9-5c-1.2-0.8-3-1.4-5.5-2c3.3-1.2,5.7-2.4,7.4-3.8
		c3.7-3,5.5-7.2,5.5-12.5c0-3-0.6-5.7-1.8-8.2c-1.5-2.9-3.6-5.1-6.4-6.6c-2.9-1.4-8.2-2.2-15.8-2.2h-37.6v63.8H582v-24.1h17.8
		c3.7,0,6.3,0.6,8,1.9c1.3,1,2.2,2.3,2.8,3.9c0.6,1.6,1.1,4.1,1.4,7.5c0.5,5.2,1,8.8,1.5,10.8h16.3c-0.9-1.7-1.4-3.2-1.7-4.4
		S627.5,619.1,627.2,614.6z M608.1,591.2c-1.3,0.5-3.7,0.8-7.1,0.8h-19v-15.9h19c3.3,0,5.7,0.3,7,0.7c3.2,1,4.8,3.4,4.8,7
		C612.8,587.4,611.3,589.9,608.1,591.2z"/>
	<polygon points="634.2,576.1 656.6,576.1 656.6,627.8 671.1,627.8 671.1,576.1 693.6,576.1 693.6,563.8 634.2,563.8 	"/>
	<rect x="701.4" y="563.8" width="14.7" height="64"/>
	<polygon points="729.4,627.8 787.1,627.8 787.1,615.5 744,615.5 744,600.5 781.9,600.5 781.9,589.1 744,589.1 744,576.1 
		787.1,576.1 787.1,563.8 729.4,563.8 	"/>
	<path d="M270.3,197.3l3.8,2.2c1.1,0.6,2.2,1.5,3.1,2.4c1.4,1.4,1.9,2.5,1.9,4c0,2.9-2.5,5.2-5.6,5.2c-2.6,0-5.1-1.4-6.6-3.7
		c-1-1.5-1.4-2.8-1.8-5.4h-1v10.9v0.1h0.9c0.2-1,0.6-1.3,1.4-1.3c0.4,0,1.1,0.2,1.8,0.4c4,1.2,4,1.2,5.9,1.2c5.6,0,9.5-3.7,9.5-8.8
		c0-3.8-2.2-6.7-7.2-9.6l-3.7-2.2c-3.1-1.8-4.7-3.8-4.7-5.7c0-2.6,2.1-4.4,5-4.4c1.9,0,3.4,0.6,4.6,1.8c1.3,1.3,2.1,3,3.2,6.6h0.9
		v-10.2h-1c-0.3,0.9-0.7,1.2-1.3,1.2c-0.4,0-0.5-0.1-2.5-0.7c-1.9-0.6-2.9-0.8-4.4-0.8c-5,0-8.5,3.4-8.5,8.3
		C264,192.3,265.8,194.8,270.3,197.3z"/>
	<path d="M296.9,190.4c-5.3,0-9.2,4.9-9.2,11.4s3.8,11.4,8.9,11.4c4.3,0,7.7-3.3,8.9-8.8l-0.7-0.7c-1.8,3.6-4.1,5.5-6.8,5.5
		c-3.9,0-6.6-3.9-6.7-9.7h13.5C304.7,193.9,301.7,190.4,296.9,190.4z M291.4,197.7c0.4-3.2,2-5.1,4.4-5.1c2.4,0,3.9,1.9,4,5.1H291.4
		z"/>
	<path d="M329.4,201.5c0-6.4-4.3-11-10.1-10.9c-3,0-5.2,1-7.4,3.1c-2.2,2.1-3.4,5.2-3.4,8.5c0,6.3,4.4,11.1,10.3,11.1
		C324.7,213.3,329.4,208.1,329.4,201.5z M312.8,201.6c0-6,2.1-9.4,5.8-9.4c3.9,0,6.5,4.4,6.5,10.8c0,5.2-2.3,8.6-5.8,8.6
		C315.5,211.6,312.8,207.5,312.8,201.6z"/>
	<path d="M334.4,196.7v8.2c0,2.7,0.2,4.1,0.8,5.4c0.8,1.9,2.4,3,4.6,3c1.7,0,3.4-0.7,4.7-1.9c0.7-0.7,1-0.9,2.4-2.5v4.5
		c3.3-1.4,3.8-1.6,7.3-2.7l-0.3-0.9c-0.5,0.2-0.9,0.2-1.3,0.2c-1.6,0-1.9-0.9-1.9-5.6v-13.5H343v0.8h1.1c2.4,0,2.8,0.8,2.8,5.1v10.5
		c-2.8,2.3-3.7,2.8-5.3,2.8c-2.4,0-3.4-1.5-3.4-5.3v-14H331v0.8h0.7C334,191.6,334.4,192.4,334.4,196.7z"/>
	<path d="M362.9,207v-27c-3.2,1.7-3.7,1.9-7.3,3.4l0.3,0.7l0.5-0.1c0.4-0.2,0.7-0.2,1-0.2c0.5,0,1.1,0.2,1.3,0.6
		c0.4,0.4,0.4,0.8,0.4,2.8V207c0,4.3-0.4,5.1-2.7,5.1h-0.8v0.8h10.9v-0.8h-0.8C363.3,212.1,362.9,211.3,362.9,207z"/>
	<path d="M375.7,212.2c0-2.4-1.5-4.2-3.4-4.2c-1.4,0-2.6,1.1-2.6,2.5s1.1,2.6,2.5,2.6c0.4,0,0.7-0.1,1.4-0.2c-0.1,2.3-1.5,4-4.1,4.8
		h0.1v0.9C373.3,218,375.7,215.5,375.7,212.2z"/>
	<path d="M402.6,182.6c1.9,0,3.4,0.6,4.6,1.8c1.3,1.3,2.1,3,3.2,6.6h0.9v-10.2h-1c-0.3,0.9-0.7,1.2-1.3,1.2c-0.4,0-0.5-0.1-2.5-0.7
		c-1.9-0.6-2.9-0.8-4.4-0.8c-5,0-8.5,3.4-8.5,8.3c0,3.5,1.8,6,6.3,8.5l3.8,2.2c1.1,0.6,2.2,1.5,3.1,2.4c1.4,1.4,1.9,2.5,1.9,4
		c0,2.9-2.5,5.2-5.6,5.2c-2.6,0-5.1-1.4-6.6-3.7c-1-1.5-1.4-2.8-1.8-5.4h-1v10.9v0.1h0.9c0.2-1,0.6-1.3,1.4-1.3
		c0.4,0,1.1,0.2,1.8,0.4c4,1.2,4,1.2,5.9,1.2c5.6,0,9.5-3.7,9.5-8.8c0-3.8-2.2-6.7-7.2-9.6l-3.7-2.2c-3.1-1.8-4.7-3.8-4.7-5.7
		C397.6,184.4,399.7,182.6,402.6,182.6z"/>
	<path d="M428,190.6c-3,0-5.2,1-7.4,3.1c-2.2,2.1-3.4,5.2-3.4,8.5c0,6.3,4.4,11.1,10.3,11.1c5.9,0,10.6-5.2,10.6-11.8
		C438.1,195.1,433.9,190.5,428,190.6z M428,211.6c-3.8,0-6.5-4.1-6.5-10c0-6,2.1-9.4,5.8-9.4c3.9,0,6.5,4.4,6.5,10.8
		C433.8,208.2,431.5,211.6,428,211.6z"/>
	<path d="M439.8,190.8v0.8h0.7c2.3,0,2.7,0.8,2.7,5.1v8.2c0,2.7,0.2,4.1,0.8,5.4c0.8,1.9,2.4,3,4.6,3c1.7,0,3.4-0.7,4.7-1.9
		c0.7-0.7,1-0.9,2.4-2.5v4.5c3.3-1.4,3.8-1.6,7.3-2.7l-0.3-0.9c-0.5,0.2-0.9,0.2-1.3,0.2c-1.6,0-1.9-0.9-1.9-5.6h-0.1v-13.5h-7.7
		v0.8h1.2c2.4,0,2.8,0.8,2.8,5.1v10.5c-2.8,2.3-3.7,2.8-5.3,2.8c-2.4,0-3.4-1.5-3.4-5.3v-14H439.8z"/>
	<path d="M470.1,184.6c-1.2,3.9-2.5,5.4-6.4,7.1v0.9h3.5V206c0,2.6,0.1,3.6,0.6,4.8c0.6,1.5,2.1,2.4,4,2.4c2.3,0,4.1-1.4,5.6-4.3
		l-0.7-0.6c-1,1.5-2,2.1-3.2,2.1c-0.4,0-0.9-0.2-1.3-0.5c-0.8-0.6-1-1.5-1-3.7v-13.6h4.6v-1.8h-4.6v-6.2H470.1z"/>
	<path d="M498.8,207v-7.9c0-2.9-0.3-4.4-1-5.9c-0.8-1.6-2.5-2.7-4.4-2.7c-2.5,0-4.3,1-7.4,4.1h-0.1V180c-3.2,1.7-3.7,1.9-7.3,3.4
		l0.3,0.7l0.5-0.1c0.4-0.2,0.8-0.2,1-0.2c1.5,0,1.8,0.7,1.8,3.4V207c0,4.3-0.4,5.1-2.7,5.1h-0.8v0.8h10.8v-0.8h-0.7
		c-2.4,0-2.8-0.8-2.8-5.1v-10.6c2.5-2.3,3.9-3.1,5.6-3.1c1.3,0,2.6,1,3,2.2c0.3,0.8,0.4,2.2,0.4,3.6v7.9c0,4.3-0.3,5.1-2.7,5.1h-0.5
		v0.8H502v-0.8h-0.5C499.2,212.1,498.8,211.3,498.8,207z"/>
	<path d="M535.5,212h-0.8v0.9H550V212c-2.9-0.1-5-1.3-9.1-5.5l-11-11.4l1-1c3-3.1,3.3-3.5,7-7.5c2.2-2.3,2.7-2.8,3.5-3.4
		c1-0.7,2.7-1.3,3.6-1.3h0.7v-1H534v0.9c2.3,0.1,2.8,0.3,2.8,1.3c0,0.8-0.7,2.1-2.9,4.7c-1.8,2.3-4.4,4.8-8.4,8.4v-10.3
		c0-1.8,0.2-2.6,0.8-3.3c0.5-0.6,0.8-0.7,2.7-0.8h1v-0.9h-13.8v0.9h1.1c2.4,0,3.3,1.1,3.3,4.1v22c0,3-0.9,4.1-3.3,4.1h-1.1v0.9h13.9
		V212h-1.2c-2.5,0-3.4-1.1-3.4-4.1h-0.1v-10.4l8.8,9c2.2,2.2,3.3,3.6,3.3,4.3C537.5,211.5,536.7,212,535.5,212z"/>
	<path d="M560.1,213.3c5.9,0,10.6-5.2,10.6-11.8c0-6.4-4.3-11-10.1-10.9c-3,0-5.2,1-7.4,3.1c-2.2,2.1-3.4,5.2-3.4,8.5
		C549.8,208.5,554.2,213.3,560.1,213.3z M559.8,192.2c3.9,0,6.5,4.4,6.5,10.8c0,5.2-2.3,8.6-5.8,8.6c-3.8,0-6.5-4.1-6.5-10
		C554,195.6,556.2,192.2,559.8,192.2z"/>
	<path d="M580.3,194.1v-4c-3.2,1.7-3.7,1.9-7.3,3.4l0.3,0.7l0.5-0.2c0.4-0.1,0.7-0.1,1-0.1c1.5,0,1.8,0.7,1.8,3.4v9.7
		c0,4.3-0.4,5.1-2.7,5.1h-1.1v0.8h11.8v-0.8h-1.4c-2.4,0-2.8-0.8-2.8-5.1h-0.2v-10.4c1.2-2,2.1-2.9,3.1-2.9c0.2,0,0.5,0.1,0.7,0.3
		c1.1,1,1.4,1.2,2.3,1.2c1.3,0,2.2-1,2.2-2.3c0-1.4-1.2-2.5-2.9-2.5C583.8,190.4,582.1,191.6,580.3,194.1z"/>
	<path d="M599.1,213.2c4.3,0,7.7-3.3,8.9-8.8l-0.7-0.7c-1.8,3.6-4.1,5.5-6.8,5.5c-3.9,0-6.6-3.9-6.7-9.7h13.5
		c-0.1-5.6-3.1-9.1-7.9-9.1c-5.3,0-9.2,4.9-9.2,11.4S594,213.2,599.1,213.2z M598.3,192.6c2.4,0,3.9,1.9,4,5.1h-8.4
		C594.3,194.5,595.9,192.6,598.3,192.6z"/>
	<path d="M614.9,201.8c-2.7,1.5-4,3.5-4,6c0,3,2.1,5.4,4.8,5.4c2.2,0,4.1-1,6.8-3.5c0.3,2.3,1.2,3.5,2.7,3.5c1.9,0,3.5-1.1,5-3.4
		l-0.4-0.6c-0.8,0.8-1.5,1.2-2.2,1.2c-0.8,0-1-0.5-1-2.4v-10.8c0-4.8-2-6.9-6.8-6.9c-4.5,0-8.2,2.5-8.2,5.5c0,1.3,1,2.4,2.1,2.4
		c0.8,0,1.6-0.5,1.8-1.3c0.1-0.4,0.1-0.4,0.1-1.4v-0.7c0-1.8,1.4-3,3.4-3c1.4,0,2.5,0.5,3,1.5c0.4,0.9,0.5,1.6,0.5,4.1v1.1
		C618.1,200.2,616.7,200.8,614.9,201.8z M622.4,208.1c-1.3,1.5-2.6,2.2-4.1,2.2c-2,0-3.4-1.5-3.4-3.7c0-2.7,1.5-4,7.5-6.4V208.1z"/>
	<path d="M315.1,453.9H314v0.9h24.5l2.8-8.7l-1-0.3c-1.8,4.9-4.2,6.7-8.9,6.7h-4c-1.3,0-2.6-0.2-3-0.3c-0.9-0.4-1-0.9-1-3.6v-20.8
		c0-3,0.9-4.1,3.3-4.1h1.1v-0.9H314v0.9h1.1c2.4,0,3.3,1.1,3.3,4.1v22C318.4,452.8,317.5,453.9,315.1,453.9z"/>
	<path d="M354.5,455.2c5.9,0,10.6-5.2,10.6-11.8c0-6.4-4.2-11-10.1-10.9c-3,0-5.2,1-7.4,3.1c-2.2,2.1-3.4,5.2-3.4,8.5
		C344.2,450.4,348.6,455.2,354.5,455.2z M354.3,434.1c3.9,0,6.5,4.4,6.5,10.8c0,5.2-2.3,8.6-5.8,8.6c-3.8,0-6.5-4.1-6.5-10
		C348.5,437.5,350.6,434.1,354.3,434.1z"/>
	<path d="M383.5,453c-0.3,0.7-0.9,1-2,1h-0.9v0.9h10.3v-0.8h-0.8c-1.1,0-1.8-0.3-2.1-1c-0.3-0.7-0.3-0.7-0.4-4.3v-7.6
		c0-3.2-0.2-4.6-0.8-6c-0.8-1.7-2.5-2.8-4.5-2.8c-2.4,0-4.5,1.3-7.3,4V432c-3.3,1.7-3.8,1.9-7.4,3.4l0.3,0.7l0.5-0.2
		c0.4-0.1,0.7-0.1,1-0.1c1.5,0,1.8,0.7,1.8,3.4v9.7c0,4.3-0.4,5.1-2.8,5.1h-0.9v0.7h10.8v-0.8h-1c-0.9,0-1.7-0.4-2-1
		c-0.3-0.5-0.4-1.9-0.4-4.2v-10.5c2.5-2.2,3.8-2.9,5.6-2.9c2.7,0,3.4,1.2,3.4,5.7v7.7C383.8,452.4,383.8,452.4,383.5,453z"/>
	<path d="M415.5,452.4l-0.3-0.8c-0.4,0.2-0.8,0.2-1.2,0.2c-0.6,0-1.2-0.3-1.5-0.9c-0.4-0.6-0.4-0.8-0.4-4.9v-24.1
		c-3.3,1.7-3.8,1.9-7.4,3.4l0.3,0.7l0.5-0.1c0.3-0.2,0.7-0.2,1-0.2c1.4,0,1.7,0.6,1.7,3.4v5c-2-1.3-3.2-1.7-4.9-1.7
		c-5.3,0-9.9,5.6-9.9,12.1c0,6,3.6,10.7,8.3,10.7c2.2,0,4.1-1,6.5-3.2h0.1v3.2C411.3,453.8,411.9,453.6,415.5,452.4z M408.1,440.6
		v9.4c-1.2,1.3-2.6,1.9-4.3,1.9c-3.8,0-6.2-3.6-6.2-9.2c0-5.1,2.4-8.7,5.9-8.7c1.4,0,2.9,0.7,3.7,1.9
		C408,436.9,408.2,438.1,408.1,440.6L408.1,440.6z"/>
	<path d="M428.1,455.2c5.9,0,10.6-5.2,10.6-11.8c0-6.4-4.3-11-10.1-10.9c-3,0-5.2,1-7.4,3.1c-2.2,2.1-3.4,5.2-3.4,8.5
		C417.8,450.4,422.2,455.2,428.1,455.2z M427.9,434.1c3.9,0,6.5,4.4,6.5,10.8c0,5.2-2.3,8.6-5.8,8.6c-3.8,0-6.5-4.1-6.5-10
		C422.1,437.5,424.2,434.1,427.9,434.1z"/>
	<path d="M457.1,453c-0.3,0.7-0.9,1-2,1h-0.9v0.9h10.3v-0.8h-0.8c-1.1,0-1.8-0.3-2.1-1c-0.3-0.7-0.3-0.7-0.4-4.3v-7.6
		c0-3.2-0.2-4.6-0.8-6c-0.8-1.7-2.5-2.8-4.5-2.8c-2.4,0-4.5,1.3-7.3,4V432c-3.3,1.7-3.8,1.9-7.4,3.4l0.3,0.7l0.5-0.2
		c0.4-0.1,0.7-0.1,1-0.1c1.5,0,1.8,0.7,1.8,3.4v9.7c0,4.3-0.4,5.1-2.8,5.1h-0.9v0.7h10.8v-0.8h-1c-0.9,0-1.7-0.4-2-1
		c-0.3-0.5-0.4-1.9-0.4-4.2v-10.5c2.5-2.2,3.8-2.9,5.6-2.9c2.7,0,3.4,1.2,3.4,5.7v7.7C457.4,452.4,457.4,452.4,457.1,453z"/>
	<path d="M473.9,454.1c0-2.4-1.5-4.2-3.4-4.2c-1.4,0-2.6,1.1-2.6,2.5c0,1.4,1.1,2.6,2.5,2.6c0.4,0,0.7-0.1,1.4-0.2
		c-0.1,2.3-1.5,4-4.1,4.8h0.1v0.9C471.5,459.9,473.9,457.4,473.9,454.1z"/>
	<path d="M494,444.3c0.1,2.5,0.6,4.4,1.5,5.8c2,3.4,5.6,5.1,10.7,5.1c5.2,0,8.7-1.6,10.8-4.9c1.2-2.1,1.7-4.3,1.7-8.1v-14.4
		c0-3,0.9-4.1,3.3-4.1h1.1v-0.9h-11v0.8h1.1c2.4,0,3.3,1.1,3.3,4.1v14.4c0,2.7-0.3,4.5-0.9,5.9c-1.2,2.9-4.5,4.8-8.4,4.8
		c-2.8,0-5.4-1.2-6.7-3c-1.1-1.5-1.5-3.1-1.5-6.5v-15.5c0-3,0.9-4.1,3.3-4.1h1.1v-0.9h-13.8v0.9h1.1c2.4,0,3.3,1.1,3.3,4.1v10.9
		C494,442.3,494,443.6,494,444.3z"/>
	<path d="M528.1,449.9c-1.5,0-2.7,1.1-2.7,2.6s1.2,2.7,2.7,2.7c1.4,0,2.6-1.2,2.6-2.7S529.5,449.8,528.1,449.9z"/>
	<path d="M554.4,453.9h-0.8v0.9h15.3v-0.9c-2.9-0.1-5-1.3-9.1-5.5l-11-11.4l1-1c3-3.1,3.3-3.5,7-7.5c2.2-2.3,2.7-2.8,3.5-3.4
		c1-0.7,2.7-1.3,3.6-1.3h0.7v-1h-11.7v0.9c2.3,0.1,2.8,0.3,2.8,1.3c0,0.8-0.7,2.1-2.9,4.7c-1.8,2.3-4.4,4.8-8.4,8.4v-10.3
		c0-1.8,0.2-2.6,0.8-3.3c0.5-0.6,0.8-0.7,2.7-0.8h1v-0.9H535v0.9h1.1c2.4,0,3.3,1.1,3.3,4.1v22c0,3-0.9,4.1-3.3,4.1H535v0.9h13.9
		v-0.9h-1.2c-2.5,0-3.4-1.1-3.4-4.1h0v-10.4l8.8,9c2.2,2.2,3.3,3.6,3.3,4.3S555.6,453.9,554.4,453.9z"/>
	<path d="M574.2,449.9c-1.5,0-2.7,1.1-2.7,2.6s1.2,2.7,2.7,2.7c1.4,0,2.6-1.2,2.6-2.7S575.6,449.8,574.2,449.9z"/>
	<path d="M293.3,660.8h-10v0.9h0.6c1.8,0,2.7,0.7,2.7,1.9c0,0.8-0.2,1.5-0.9,3.3l-7,17.7l-8.4-19.2c-0.5-1.1-0.6-1.7-0.6-2.2
		c0-0.9,1-1.5,2.7-1.5h0.9v-0.9h-13.2v0.9h0.7c2.1,0,3.1,1.1,5.2,6l11.2,25.6h0.4l10-25.5c1.9-4.7,3-6,5.7-6.1V660.8z"/>
	<path d="M307.6,690.4c-0.8,0-1-0.5-1-2.4v-10.9c0-4.8-2-6.9-6.8-6.9c-4.5,0-8.2,2.5-8.2,5.5c0,1.3,1,2.4,2.1,2.4
		c0.8,0,1.6-0.5,1.8-1.3c0.1-0.4,0.1-0.4,0.1-1.4v-0.7c0-1.8,1.4-3,3.4-3c1.4,0,2.5,0.5,3,1.5c0.4,0.9,0.5,1.6,0.5,4.1v1.1
		c-4.4,1.7-5.8,2.3-7.6,3.3c-2.7,1.5-4,3.5-4,6c0,3,2.1,5.4,4.8,5.4c2.2,0,4.1-1,6.8-3.5c0.3,2.3,1.2,3.5,2.7,3.5
		c1.9,0,3.5-1.1,5-3.4l-0.4-0.5C309,690,308.3,690.4,307.6,690.4z M302.4,688c-1.3,1.5-2.6,2.2-4.1,2.2c-2,0-3.4-1.5-3.4-3.7
		c0-2.7,1.5-4,7.5-6.4V688z"/>
	<path d="M331.7,691.1c-0.3-0.7-0.3-0.7-0.4-4.3v-7.6c0-3.2-0.2-4.6-0.8-6c-0.8-1.7-2.5-2.8-4.5-2.8c-2.4,0-4.5,1.3-7.3,4V670
		c-3.3,1.7-3.8,1.9-7.4,3.4l0.3,0.7l0.5-0.2c0.4-0.1,0.7-0.1,1-0.1c1.5,0,1.8,0.7,1.8,3.4v9.7c0,4.3-0.4,5.1-2.8,5.1h-0.9v0.7H322
		v-0.8h-1c-0.9,0-1.7-0.4-2-1c-0.3-0.5-0.4-1.9-0.4-4.2v-10.5c2.5-2.2,3.8-2.9,5.6-2.9c2.7,0,3.4,1.2,3.4,5.7v7.7
		c-0.1,3.7-0.1,3.7-0.4,4.3c-0.3,0.7-0.9,1-2,1h-0.9v0.9h10.3v-0.8h-0.8C332.7,692.1,332,691.8,331.7,691.1z"/>
	<path d="M347.6,689c-4,0-6.6-3.4-6.6-8.7c0-4.9,2.2-8.2,5.5-8.2c1.8,0,2.6,0.8,2.9,2.8c0.2,1.7,1.1,2.5,2.6,2.5
		c1.4,0,2.4-0.9,2.4-2.1c0-2.7-3.2-5-7.2-5c-5.9,0-10.1,4.8-10.1,11.6c0,3,0.8,5.6,2.3,7.6c1.7,2.2,4.4,3.6,6.9,3.6
		c4.1,0,7.2-3,8.9-8.8l-0.9-0.5C353.1,687.1,350.7,689,347.6,689z"/>
	<path d="M369.1,670.5c-3,0-5.2,1-7.4,3.1c-2.2,2.1-3.4,5.2-3.4,8.5c0,6.3,4.4,11.1,10.3,11.1c5.9,0,10.6-5.2,10.6-11.8
		C379.2,675,374.9,670.4,369.1,670.5z M369.1,691.5c-3.8,0-6.5-4.1-6.5-10c0-6,2.1-9.4,5.8-9.4c3.9,0,6.5,4.4,6.5,10.8
		C374.9,688.1,372.6,691.5,369.1,691.5z"/>
	<path d="M402.4,690c-1.6,0-1.9-0.9-1.9-5.6h-0.1v-13.5h-7.7v0.8h1.2c2.4,0,2.8,0.8,2.8,5.1v10.5c-2.8,2.3-3.7,2.8-5.3,2.8
		c-2.4,0-3.4-1.5-3.4-5.3v-14h-7.2v0.8h0.7c2.3,0,2.7,0.8,2.7,5.1v8.2c0,2.7,0.2,4.1,0.8,5.4c0.8,1.9,2.4,3,4.6,3
		c1.7,0,3.4-0.7,4.7-1.9c0.7-0.7,1-0.9,2.4-2.5v4.5c3.3-1.4,3.8-1.6,7.3-2.7l-0.3-0.9C403.2,690,402.8,690,402.4,690z"/>
	<path d="M418.9,671.7h0.6c0.9,0,1.5,0.4,1.5,1.2c0,0.3-0.1,0.6-0.4,1.5l-4.3,11.4l-4-10.4c-0.4-1.2-0.6-1.8-0.6-2.4
		c0-0.9,0.6-1.4,1.8-1.4h0.4v-0.9H404v0.9h0.4c0.9,0,1.9,0.6,2.5,1.5c0.6,0.8,1,1.7,1.9,4l6,16.3h0.9l6.5-17.7
		c1.1-2.8,1.9-3.8,3.1-3.9l0.6-0.1v-0.9h-7V671.7z"/>
	<path d="M436.5,689.1c-3.9,0-6.6-3.9-6.7-9.7h13.5c-0.1-5.6-3.1-9.1-7.9-9.1c-5.3,0-9.2,4.9-9.2,11.4s3.8,11.4,8.9,11.4
		c4.3,0,7.7-3.3,8.9-8.8l-0.7-0.7C441.5,687.2,439.2,689.1,436.5,689.1z M434.3,672.5c2.4,0,3.9,1.9,4,5.1h-8.4
		C430.3,674.4,431.9,672.5,434.3,672.5z"/>
	<path d="M458.6,670.3c-1.8,0-3.5,1.2-5.3,3.7v-4c-3.2,1.7-3.7,1.9-7.3,3.4l0.3,0.7l0.5-0.2c0.4-0.1,0.7-0.1,1-0.1
		c1.5,0,1.8,0.7,1.8,3.4v9.7c0,4.3-0.4,5.1-2.7,5.1h-1.1v0.8h11.8V692h-1.4c-2.4,0-2.8-0.8-2.8-5.1h-0.2v-10.4
		c1.2-2,2.1-2.9,3.1-2.9c0.2,0,0.5,0.1,0.7,0.3c1.1,1,1.4,1.2,2.3,1.2c1.3,0,2.2-1,2.2-2.3C461.5,671.4,460.3,670.3,458.6,670.3z"/>
	<path d="M465.4,687.9c-1.4,0-2.6,1.1-2.6,2.5c0,1.4,1.1,2.6,2.5,2.6c0.4,0,0.7-0.1,1.4-0.2c-0.1,2.3-1.5,4-4.1,4.8h0.1v0.9
		c3.7-0.6,6.1-3.1,6.1-6.4C468.8,689.7,467.3,687.9,465.4,687.9z"/>
	<path d="M502.8,691.1c-7,0-11.5-5.5-11.5-14.1c0-8.9,4.5-14.7,11.4-14.7c2.8,0,5.5,1.1,7.6,3.2c1.7,1.7,2.6,3.5,2.9,6.2l0.9-0.1
		l-0.3-10.8h-1c-0.2,1.3-0.6,1.9-1.5,1.9c-0.4,0-0.5,0-2.4-0.9c-2-0.8-4.4-1.3-6.8-1.3c-9.4,0-16.7,7.2-16.7,16.3
		c0,9.1,7.2,16.4,16.1,16.4c5.1,0,9.9-2.7,12.9-7.3l-0.8-0.5C510.7,689.2,507.2,691.1,502.8,691.1z"/>
	<path d="M534.7,690.4c-0.8,0-1-0.5-1-2.4v-10.9c0-4.8-2-6.9-6.8-6.9c-4.5,0-8.2,2.5-8.2,5.5c0,1.3,1,2.4,2.1,2.4
		c0.8,0,1.6-0.5,1.8-1.3c0.1-0.4,0.1-0.4,0.1-1.4v-0.7c0-1.8,1.4-3,3.4-3c1.4,0,2.5,0.5,3,1.5c0.4,0.9,0.5,1.6,0.5,4.1v1.1
		c-4.4,1.7-5.8,2.3-7.6,3.3c-2.7,1.5-4,3.5-4,6c0,3,2.1,5.4,4.8,5.4c2.2,0,4.1-1,6.8-3.5c0.3,2.3,1.2,3.5,2.7,3.5
		c1.9,0,3.5-1.1,5-3.4l-0.4-0.5C536.1,690,535.4,690.4,534.7,690.4z M529.6,688c-1.3,1.5-2.6,2.2-4.1,2.2c-2,0-3.4-1.5-3.4-3.7
		c0-2.7,1.5-4,7.5-6.4V688z"/>
	<path d="M558.8,691.1c-0.3-0.7-0.3-0.7-0.4-4.3v-7.6c0-3.2-0.2-4.6-0.8-6c-0.8-1.7-2.5-2.8-4.5-2.8c-2.4,0-4.5,1.3-7.3,4V670
		c-3.3,1.7-3.8,1.9-7.4,3.4l0.3,0.7l0.5-0.2c0.4-0.1,0.7-0.1,1-0.1c1.5,0,1.8,0.7,1.8,3.4v9.7c0,4.3-0.4,5.1-2.8,5.1h-0.9v0.7h10.8
		v-0.8h-1c-0.9,0-1.7-0.4-2-1c-0.3-0.5-0.4-1.9-0.4-4.2v-10.5c2.5-2.2,3.8-2.9,5.6-2.9c2.7,0,3.4,1.2,3.4,5.7v7.7
		c-0.1,3.7-0.1,3.7-0.4,4.3c-0.3,0.7-0.9,1-2,1h-0.9v0.9h10.3v-0.8h-0.8C559.8,692.1,559.1,691.8,558.8,691.1z"/>
	<path d="M581,690.4c-0.8,0-1-0.5-1-2.4v-10.9c0-4.8-2-6.9-6.8-6.9c-4.5,0-8.2,2.5-8.2,5.5c0,1.3,1,2.4,2.1,2.4
		c0.8,0,1.6-0.5,1.8-1.3c0.1-0.4,0.1-0.4,0.1-1.4v-0.7c0-1.8,1.4-3,3.4-3c1.4,0,2.5,0.5,3,1.5c0.4,0.9,0.5,1.6,0.5,4.1v1.1
		c-4.4,1.7-5.8,2.3-7.6,3.3c-2.7,1.5-4,3.5-4,6c0,3,2.1,5.4,4.8,5.4c2.2,0,4.1-1,6.8-3.5c0.3,2.3,1.2,3.5,2.7,3.5
		c1.9,0,3.5-1.1,5-3.4l-0.4-0.5C582.4,690,581.7,690.4,581,690.4z M575.8,688c-1.3,1.5-2.6,2.2-4.1,2.2c-2,0-3.4-1.5-3.4-3.7
		c0-2.7,1.5-4,7.5-6.4V688z"/>
	<path d="M606.2,689.8c-0.6,0-1.2-0.3-1.5-0.9c-0.4-0.6-0.4-0.8-0.4-4.9v-24.1c-3.3,1.7-3.8,1.9-7.4,3.4l0.3,0.7l0.5-0.1
		c0.3-0.2,0.7-0.2,1-0.2c1.4,0,1.7,0.6,1.7,3.4v5c-2-1.3-3.2-1.7-4.9-1.7c-5.3,0-9.9,5.6-9.9,12.1c0,6,3.6,10.7,8.3,10.7
		c2.2,0,4.1-1,6.5-3.2h0.1v3.2c3-1.4,3.6-1.6,7.2-2.8l-0.3-0.8C607,689.8,606.6,689.8,606.2,689.8z M600.3,678.6v9.4
		c-1.2,1.3-2.6,1.9-4.3,1.9c-3.8,0-6.2-3.6-6.2-9.2c0-5.1,2.4-8.7,5.9-8.7c1.4,0,2.9,0.7,3.7,1.9c0.8,1,1,2.2,1,4.7H600.3z"/>
	<path d="M627,690.4c-0.8,0-1-0.5-1-2.4v-10.9c0-4.8-2-6.9-6.8-6.9c-4.5,0-8.2,2.5-8.2,5.5c0,1.3,1,2.4,2.1,2.4
		c0.8,0,1.6-0.5,1.8-1.3c0.1-0.4,0.1-0.4,0.1-1.4v-0.7c0-1.8,1.4-3,3.4-3c1.4,0,2.5,0.5,3,1.5c0.4,0.9,0.5,1.6,0.5,4.1v1.1
		c-4.4,1.7-5.8,2.3-7.6,3.3c-2.7,1.5-4,3.5-4,6c0,3,2.1,5.4,4.8,5.4c2.2,0,4.1-1,6.8-3.5c0.3,2.3,1.2,3.5,2.7,3.5
		c1.9,0,3.5-1.1,5-3.4l-0.4-0.5C628.4,690,627.7,690.4,627,690.4z M621.8,688c-1.3,1.5-2.6,2.2-4.1,2.2c-2,0-3.4-1.5-3.4-3.7
		c0-2.7,1.5-4,7.5-6.4V688z"/>
</g>
</svg>
