<?xml version="1.0" encoding="utf-8"?>
<!-- Generator: Adobe Illustrator 25.2.3, SVG Export Plug-In . SVG Version: 6.00 Build 0)  -->
<svg version="1.1" id="Layer_2" xmlns="http://www.w3.org/2000/svg" xmlns:xlink="http://www.w3.org/1999/xlink" x="0px" y="0px"
	 viewBox="0 0 890.7 841.9" style="enable-background:new 0 0 890.7 841.9;" xml:space="preserve">
<g>
	<path d="M240,136.1c-2.4,1.2-5.7,1.9-9.8,1.9c-6,0-10.3-1.2-13-3.5c-2.1-1.8-3.3-4.6-3.7-8.2h-17.2c0.2,3.3,0.7,6.1,1.6,8.4
		c0.9,2.3,2.3,4.4,4.3,6.5c5.3,5.7,14.1,8.5,26.3,8.5c9.9,0,17.7-1.7,23.5-5.2c6.3-3.8,9.5-9.4,9.5-16.6c0-2.8-0.6-5.5-1.8-7.8
		c-1.2-2.4-2.8-4.2-4.9-5.6c-2-1.3-4.4-2.3-7.1-3.1c-2.8-0.8-7.3-1.7-13.6-2.7c-8.3-1.3-13.6-2.3-15.8-3c-3.1-0.9-4.6-2.6-4.6-5.2
		c0-4.4,4.7-6.6,14-6.6c4.9,0,8.5,0.8,10.8,2.3c2,1.3,3.2,3.5,3.7,6.3H259c-0.3-5-2.2-9.3-5.7-12.8c-5.1-5.1-13.5-7.6-25.4-7.6
		c-13.2,0-22.2,3.1-27,9.3c-2.5,3.3-3.7,7-3.7,11.2c0,2.8,0.6,5.4,1.8,7.7c1.2,2.3,2.9,4.1,5.1,5.5c2.2,1.3,4.4,2.3,6.7,2.9
		c2.3,0.6,7,1.5,14.2,2.6c8,1.2,13.1,2.4,15.5,3.4c2.4,1.1,3.6,2.8,3.6,5.1C244.2,132.6,242.8,134.7,240,136.1z"/>
	<path d="M276.8,142.5c5.8,4.8,13.4,7.2,22.8,7.2c9.3,0,16.9-2.4,22.7-7.2c5.6-4.7,8.3-10.8,8.3-18.5c0-7.7-2.8-13.9-8.3-18.5
		c-5.9-4.8-13.5-7.2-22.8-7.2c-9.3,0-16.9,2.4-22.7,7.2c-5.6,4.6-8.4,10.6-8.4,18.1C268.5,131.5,271.3,137.8,276.8,142.5z
		 M287.9,112.8c2.8-2.9,6.8-4.4,11.8-4.4c5,0,8.9,1.5,11.7,4.4c2.7,2.8,4,6.5,4,11.4c0,4.5-1.3,8.2-4,11c-2.9,3-6.8,4.5-11.7,4.5
		c-5,0-8.9-1.5-11.8-4.5c-2.7-2.8-4-6.5-4-11.2C283.8,119.3,285.2,115.5,287.9,112.8z"/>
	<polygon points="354.2,129.4 356.6,99.2 356.6,83.9 340.6,83.9 340.6,99.2 343.2,129.4 	"/>
	<rect x="341.1" y="133.6" width="15.3" height="14.3"/>
	<polygon points="392,147.9 406.6,147.9 406.6,122.6 435.8,83.9 417.7,83.9 399.6,109.6 381,83.9 362.2,83.9 392,122.6 	"/>
	<path d="M447,142.5c5.8,4.8,13.4,7.2,22.8,7.2c9.3,0,16.9-2.4,22.7-7.2c5.6-4.7,8.3-10.8,8.3-18.5c0-7.7-2.8-13.9-8.3-18.5
		c-5.9-4.8-13.5-7.2-22.8-7.2c-9.3,0-16.9,2.4-22.7,7.2c-5.6,4.6-8.4,10.6-8.4,18.1C438.7,131.5,441.5,137.8,447,142.5z
		 M458.1,112.8c2.8-2.9,6.8-4.4,11.8-4.4c5,0,8.9,1.5,11.7,4.4c2.7,2.8,4,6.5,4,11.4c0,4.5-1.3,8.2-4,11c-2.9,3-6.8,4.5-11.7,4.5
		c-5,0-8.9-1.5-11.8-4.5c-2.7-2.8-4-6.5-4-11.2C454,119.3,455.4,115.5,458.1,112.8z"/>
	<path d="M519.6,140.7c7.3,6,16.6,9,27.9,9c11.2,0,20.4-3,27.7-9c7.4-6.2,11.2-14.3,11.2-24.4c0-11.1-4.2-19.8-12.6-26.2
		c-6.9-5.3-15.7-8-26.4-8c-6.4,0-12.2,1-17.3,3c-6.6,2.5-11.8,6.4-15.7,11.8c-4,5.5-6,11.9-6,19.1
		C508.4,126.3,512.1,134.5,519.6,140.7z M531.3,99.7c4.2-3.9,9.5-5.9,16-5.9c6.4,0,11.8,2,16,5.9c4.5,4.1,6.7,9.5,6.7,16.2
		c0,6.2-2,11.3-5.9,15.4c-4.3,4.4-9.9,6.7-16.8,6.7c-7,0-12.6-2.2-16.9-6.7c-3.9-4.1-5.9-9.3-5.9-15.6
		C524.6,109.2,526.9,103.9,531.3,99.7z"/>
	<polygon points="611.2,104.5 646.9,147.9 663,147.9 663,83.9 648.8,83.9 648.8,127.2 613.1,83.9 596.9,83.9 596.9,147.9 
		611.2,147.9 	"/>
	<polygon points="689.5,129.4 691.9,99.2 691.9,83.9 675.9,83.9 675.9,99.2 678.5,129.4 	"/>
	<rect x="676.4" y="133.6" width="15.3" height="14.3"/>
	<polygon points="159.7,377.6 123.6,377.6 123.6,325.8 109,325.8 109,389.8 159.7,389.8 	"/>
	<path d="M183.2,375.4h30l6.8,14.4h17.3l-31.4-64h-14.6l-30.7,64h16L183.2,375.4z M198.1,342.7L208,364h-19.5L198.1,342.7z"/>
	<polygon points="254.7,325.8 237.1,325.8 266.6,389.8 283.2,389.8 311.4,325.8 294.9,325.8 275.3,372.7 	"/>
	<path d="M370.4,389.8h17.3l-31.4-64h-14.6l-30.7,64h16l6.5-14.4h30L370.4,389.8z M338.9,364l9.6-21.3l9.9,21.3H338.9z"/>
	<polygon points="470.6,377.6 434.6,377.6 434.6,325.8 419.9,325.8 419.9,389.8 470.6,389.8 	"/>
	<path d="M487.6,389.8l6.5-14.4h30l6.8,14.4h17.3l-31.4-64h-14.6l-30.7,64H487.6z M509,342.7l9.9,21.3h-19.5L509,342.7z"/>
	<path d="M580.4,389.8h14.6v-24.1h17.8c3.7,0,6.4,0.6,8,1.9c1.3,1,2.2,2.3,2.8,3.9c0.6,1.6,1,4.1,1.4,7.5c0.5,5.2,1,8.8,1.5,10.8
		h16.3c-0.9-1.7-1.4-3.2-1.7-4.4c-0.2-1.2-0.5-4.1-0.9-8.6c-0.3-4.9-0.9-8.4-1.7-10.5s-2.1-3.8-3.9-5c-1.2-0.8-3-1.5-5.5-2
		c3.3-1.1,5.8-2.4,7.4-3.8c3.7-3,5.5-7.2,5.5-12.5c0-3-0.6-5.7-1.8-8.2c-1.4-2.9-3.6-5.1-6.4-6.6c-2.9-1.5-8.2-2.2-15.8-2.2h-37.6
		V389.8z M595.1,338h19c3.4,0,5.7,0.2,7,0.7c3.2,1.1,4.8,3.4,4.8,7c0,3.6-1.6,6.1-4.7,7.4c-1.3,0.6-3.7,0.8-7.1,0.8h-19V338z"/>
	<path d="M714.3,371.5c0.3-2.1,0.4-4.8,0.4-8.2v-37.5h-14.7v36.3c0,4.3-0.5,7.5-1.4,9.7c-2.3,5.3-7.4,8-15.2,8
		c-7.1,0-12-2.2-14.6-6.7c-1.4-2.4-2.1-6.1-2.1-11v-36.3h-14.7v36.9c0,3.6,0.1,6.5,0.4,8.5c0.9,7,4.8,12.4,11.5,16.2
		c5.1,2.8,11.5,4.2,19.4,4.2c7.9,0,14.3-1.4,19.4-4.2C709.5,383.6,713.4,378.3,714.3,371.5z"/>
	<polygon points="785.1,377.5 742,377.5 742,362.5 779.9,362.5 779.9,351.1 742,351.1 742,338.1 785.1,338.1 785.1,325.8 
		727.4,325.8 727.4,389.8 785.1,389.8 	"/>
	<path d="M100.5,601.9c0,3.7-0.1,6.2-0.2,7.5s-0.5,2.7-1,3.9c-1.2,3.1-4.1,4.6-8.7,4.6c-4.8,0-7.9-1.9-9.4-5.6
		c-0.7-1.7-1.1-5-1.3-9.8H65.4c0,6.3,0.7,11.3,2.1,14.7c1.4,3.5,4,6.3,7.5,8.6c4.1,2.5,9.2,3.8,15.5,3.8c5.7,0,10.6-1.1,14.5-3.3
		c5.7-3.2,8.9-7.9,9.7-13.9c0.2-1.7,0.3-4.8,0.3-9.2v-39.3h-14.6V601.9z"/>
	<path d="M151.6,563.8l-30.7,64h16l6.5-14.4h30l6.8,14.4h17.3l-31.4-64H151.6z M148.8,602l9.6-21.3l9.9,21.3H148.8z"/>
	<polygon points="266.6,615.6 220.2,615.6 265.3,576.2 265.3,563.8 201,563.8 201,576 245,576 199.7,615.7 199.7,627.8 266.6,627.8 
			"/>
	<polygon points="337.9,615.6 291.5,615.6 336.6,576.2 336.6,563.8 272.3,563.8 272.3,576 316.3,576 271,615.7 271,627.8 
		337.9,627.8 	"/>
	<path d="M408.5,573.7c6.2,0,11.3,1.8,15.3,5.4c1.4,1.3,2.4,2.5,3.1,3.6c0.7,1.1,1.3,2.7,1.8,4.6h17c-1.1-6.2-3.6-11.3-7.5-15.2
		c-6.8-6.8-16.6-10.2-29.4-10.2c-10.7,0-19.6,2.7-26.6,8.1c-8.3,6.4-12.5,14.9-12.5,25.5c0,5.3,1.1,10.1,3.3,14.5
		c2.3,4.5,5.5,8.4,9.8,11.6c6.9,5.3,15.7,8,26.2,8c10.7,0,19.2-2.4,25.5-7.3c5.9-4.6,9.7-10.8,11.2-18.6h-17c-1,3.5-2.6,6.3-4.7,8.4
		c-3.8,3.8-8.9,5.8-15.2,5.8c-6.9,0-12.6-2.3-17-6.8c-3.9-4.1-5.9-9.2-5.9-15.3c0-6.8,2.2-12.2,6.6-16.3
		C396.6,575.6,401.9,573.7,408.5,573.7z"/>
	<path d="M507.3,627.8h17.3l-31.4-64h-14.6l-30.7,64h16l6.5-14.4h30L507.3,627.8z M475.8,602l9.6-21.3l9.9,21.3H475.8z"/>
	<path d="M574.4,609.5c0.6,1.6,1,4.1,1.4,7.5c0.5,5.2,1,8.8,1.5,10.8h16.3c-0.9-1.7-1.4-3.2-1.7-4.4s-0.5-4.1-0.9-8.6
		c-0.3-4.9-0.9-8.4-1.7-10.5s-2.1-3.8-3.9-5c-1.2-0.8-3-1.5-5.5-2c3.3-1.1,5.8-2.4,7.4-3.8c3.7-3,5.5-7.2,5.5-12.5
		c0-3-0.6-5.8-1.8-8.2c-1.4-2.9-3.6-5.1-6.4-6.6c-2.9-1.5-8.2-2.2-15.8-2.2h-37.6v64h14.6v-24.1h17.8c3.7,0,6.4,0.6,8,1.9
		C572.9,606.6,573.8,607.9,574.4,609.5z M545.8,591.9V576h19c3.4,0,5.7,0.2,7,0.7c3.2,1.1,4.8,3.4,4.8,7c0,3.6-1.6,6.1-4.7,7.4
		c-1.3,0.6-3.7,0.8-7.1,0.8H545.8z"/>
	<polygon points="598,576.1 620.4,576.1 620.4,627.8 635,627.8 635,576.1 657.5,576.1 657.5,563.8 598,563.8 	"/>
	<rect x="665.3" y="563.8" width="14.7" height="64"/>
	<polygon points="693.2,627.8 750.9,627.8 750.9,615.5 707.8,615.5 707.8,600.5 745.7,600.5 745.7,589.1 707.8,589.1 707.8,576.1 
		750.9,576.1 750.9,563.8 693.2,563.8 	"/>
	<path d="M821.9,623.4c-0.2-1.2-0.5-4.1-0.9-8.6c-0.3-4.9-0.9-8.4-1.7-10.5s-2.1-3.8-3.9-5c-1.2-0.8-3-1.5-5.5-2
		c3.3-1.1,5.8-2.4,7.4-3.8c3.7-3,5.5-7.2,5.5-12.5c0-3-0.6-5.8-1.8-8.2c-1.4-2.9-3.6-5.1-6.4-6.6c-2.9-1.5-8.2-2.2-15.8-2.2h-37.6
		v64h14.6v-24.1h17.8c3.7,0,6.4,0.6,8,1.9c1.3,1,2.2,2.3,2.8,3.9s1,4.1,1.4,7.5c0.5,5.2,1,8.8,1.5,10.8h16.3
		C822.7,626.1,822.2,624.6,821.9,623.4z M802,591.1c-1.3,0.6-3.7,0.8-7.1,0.8h-19V576h19c3.4,0,5.7,0.2,7,0.7c3.2,1.1,4.8,3.4,4.8,7
		C806.8,587.3,805.2,589.7,802,591.1z"/>
	<path d="M270.2,197.3l3.8,2.2c1.1,0.6,2.2,1.5,3.1,2.4c1.4,1.4,1.9,2.5,1.9,4c0,2.9-2.4,5.2-5.6,5.2c-2.5,0-5-1.4-6.6-3.7
		c-1-1.5-1.4-2.7-1.8-5.4h-1v10.8h1c0.3-1,0.7-1.3,1.4-1.3c0.4,0,1.1,0.1,1.8,0.4c4,1.2,4,1.2,5.9,1.2c5.6,0,9.5-3.7,9.5-8.8
		c0-3.7-2.2-6.7-7.2-9.6l-3.7-2.2c-3.1-1.7-4.7-3.7-4.7-5.7c0-2.5,2.1-4.4,5-4.4c1.9,0,3.5,0.6,4.6,1.8c1.2,1.3,2.1,2.9,3.2,6.6h0.9
		v-10.2h-1c-0.3,0.8-0.7,1.2-1.3,1.2c-0.4,0-0.5,0-2.5-0.7c-1.9-0.6-2.9-0.8-4.4-0.8c-5,0-8.5,3.4-8.5,8.3
		C263.9,192.3,265.7,194.8,270.2,197.3z"/>
	<path d="M296.8,190.5c-5.2,0-9.2,4.9-9.2,11.4s3.8,11.4,8.9,11.4c4.3,0,7.7-3.4,8.9-8.8l-0.7-0.6c-1.7,3.6-4,5.5-6.8,5.5
		c-3.9,0-6.6-3.9-6.7-9.7h13.5C304.7,194,301.6,190.5,296.8,190.5z M291.3,197.7c0.4-3.2,2-5.1,4.4-5.1c2.4,0,3.9,1.9,4,5.1H291.3z"
		/>
	<path d="M329.3,201.4c0-6.3-4.3-11-10.2-11c-3,0-5.3,1-7.4,3.1s-3.4,5.3-3.4,8.5c0,6.3,4.4,11.1,10.3,11.1
		C324.6,213.2,329.3,208,329.3,201.4z M312.7,201.5c0-6,2.1-9.4,5.8-9.4c3.9,0,6.5,4.4,6.5,10.8c0,5.2-2.3,8.6-5.8,8.6
		C315.4,211.5,312.7,207.4,312.7,201.5z"/>
	<path d="M334.4,196.7v8.2c0,2.6,0.2,4,0.8,5.4c0.8,1.9,2.4,3,4.6,3c1.7,0,3.4-0.7,4.7-1.9c0.7-0.7,1-0.9,2.4-2.5v4.5
		c3.3-1.4,3.8-1.6,7.3-2.7l-0.3-0.9c-0.6,0.2-0.9,0.2-1.3,0.2c-1.6,0-1.9-0.9-1.9-5.6v-13.6H343v0.8h1.2c2.4,0,2.8,0.8,2.8,5.1v10.5
		c-2.7,2.4-3.6,2.8-5.3,2.8c-2.4,0-3.4-1.5-3.4-5.3v-14H331v0.8h0.7C334,191.6,334.4,192.4,334.4,196.7z"/>
	<path d="M356.3,184c0.3-0.1,0.7-0.2,1-0.2c0.6,0,1.1,0.2,1.3,0.6c0.4,0.5,0.4,0.9,0.4,2.8V207c0,4.3-0.4,5.1-2.7,5.1h-0.8v0.8h10.9
		v-0.8h-0.8c-2.4,0-2.8-0.8-2.8-5.1v-26.9c-3.3,1.6-3.8,1.9-7.3,3.4l0.3,0.7L356.3,184z"/>
	<path d="M369.5,217.7v0.8c3.7-0.6,6.1-3.1,6.1-6.4c0-2.4-1.4-4.2-3.4-4.2c-1.5,0-2.6,1.1-2.6,2.5c0,1.4,1.2,2.6,2.5,2.6
		c0.4,0,0.7,0,1.4-0.2C373.5,215.2,372.1,216.9,369.5,217.7z"/>
	<path d="M413.3,204.4c0-3.7-2.2-6.7-7.2-9.6l-3.7-2.2c-3.1-1.7-4.7-3.7-4.7-5.7c0-2.5,2.1-4.4,5-4.4c1.9,0,3.5,0.6,4.6,1.8
		c1.2,1.3,2.1,2.9,3.2,6.6h0.9v-10.2h-1c-0.3,0.8-0.7,1.2-1.3,1.2c-0.4,0-0.5,0-2.5-0.7c-1.9-0.6-2.9-0.8-4.4-0.8
		c-5,0-8.5,3.4-8.5,8.3c0,3.5,1.8,6,6.3,8.5l3.8,2.2c1.1,0.6,2.2,1.5,3.1,2.4c1.4,1.4,1.9,2.5,1.9,4c0,2.9-2.4,5.2-5.6,5.2
		c-2.5,0-5-1.4-6.6-3.7c-1-1.5-1.4-2.7-1.8-5.4h-1v10.8h1c0.3-1,0.7-1.3,1.4-1.3c0.4,0,1.1,0.1,1.8,0.4c4,1.2,4,1.2,5.9,1.2
		C409.4,213.2,413.3,209.5,413.3,204.4z"/>
	<path d="M427.9,190.5c-3,0-5.3,1-7.4,3.1s-3.4,5.3-3.4,8.5c0,6.3,4.4,11.1,10.3,11.1c5.9,0,10.6-5.2,10.6-11.8
		C438.1,195.1,433.8,190.5,427.9,190.5z M428,211.5c-3.8,0-6.5-4.1-6.5-10c0-6,2.1-9.4,5.8-9.4c3.9,0,6.5,4.4,6.5,10.8
		C433.8,208.2,431.5,211.5,428,211.5z"/>
	<path d="M439.8,190.8v0.8h0.7c2.3,0,2.7,0.8,2.7,5.1v8.2c0,2.6,0.2,4,0.8,5.4c0.8,1.9,2.4,3,4.6,3c1.7,0,3.4-0.7,4.7-1.9
		c0.7-0.7,1-0.9,2.4-2.5v4.5c3.3-1.4,3.8-1.6,7.3-2.7l-0.3-0.9c-0.6,0.2-0.9,0.2-1.3,0.2c-1.6,0-1.9-0.9-1.9-5.6v-13.6h-7.7v0.8h1.2
		c2.4,0,2.8,0.8,2.8,5.1v10.5c-2.7,2.4-3.6,2.8-5.3,2.8c-2.4,0-3.4-1.5-3.4-5.3v-14H439.8z"/>
	<path d="M470.1,184.6c-1.2,3.9-2.5,5.3-6.4,7.1v0.9h3.5V206c0,2.6,0.1,3.6,0.6,4.8c0.6,1.5,2.1,2.4,4,2.4c2.4,0,4.1-1.4,5.6-4.3
		l-0.7-0.6c-1.1,1.5-2,2.1-3.2,2.1c-0.4,0-0.9-0.2-1.3-0.5c-0.8-0.7-1-1.6-1-3.7v-13.6h4.6v-1.8h-4.6v-6.2H470.1z"/>
	<path d="M498.8,207V199c0-2.8-0.2-4.4-1-5.9c-0.8-1.6-2.5-2.7-4.4-2.7c-2.5,0-4.3,1-7.4,4.1v-14.5c-3.3,1.6-3.8,1.9-7.3,3.4
		l0.3,0.7l0.5-0.1c0.3-0.1,0.7-0.2,1-0.2c1.4,0,1.8,0.7,1.8,3.4V207c0,4.3-0.4,5.1-2.7,5.1h-0.8v0.8h10.8v-0.8h-0.7
		c-2.4,0-2.8-0.8-2.8-5.1v-10.6c2.4-2.3,3.9-3.1,5.6-3.1c1.3,0,2.6,1,3,2.2c0.3,0.8,0.4,2.2,0.4,3.6v7.9c0,4.3-0.4,5.1-2.7,5.1h-0.5
		v0.8H502v-0.8h-0.5C499.2,212.1,498.8,211.3,498.8,207z"/>
	<path d="M535.6,212h-0.8v0.9h15.3V212c-2.9,0-5-1.3-9.1-5.5l-11-11.4l1-1c3-3.1,3.3-3.5,7-7.5c2.1-2.3,2.6-2.8,3.5-3.4
		c1-0.7,2.7-1.3,3.6-1.3h0.7v-1h-11.7v0.9c2.3,0.1,2.8,0.3,2.8,1.3c0,0.8-0.8,2-2.9,4.7c-1.9,2.4-4.5,4.9-8.4,8.4v-10.3
		c0-1.7,0.2-2.6,0.8-3.3c0.5-0.6,0.9-0.7,2.7-0.8l1,0v-0.9h-13.9v0.9h1.1c2.4,0,3.3,1.1,3.3,4.1v22c0,3-0.9,4.1-3.3,4.1h-1.1v0.9
		H530V212h-1.2c-2.5,0-3.4-1.1-3.4-4.1v-10.5l8.8,9c2.2,2.2,3.3,3.6,3.3,4.3C537.6,211.4,536.7,212,535.6,212z"/>
	<path d="M560.5,190.5c-3,0-5.3,1-7.4,3.1s-3.4,5.3-3.4,8.5c0,6.3,4.4,11.1,10.3,11.1s10.6-5.2,10.6-11.8
		C570.6,195.1,566.4,190.5,560.5,190.5z M560.6,211.5c-3.8,0-6.5-4.1-6.5-10c0-6,2.1-9.4,5.8-9.4c3.9,0,6.5,4.4,6.5,10.8
		C566.3,208.2,564.1,211.5,560.6,211.5z"/>
	<path d="M580.4,194.2v-4c-3.3,1.6-3.8,1.9-7.3,3.4l0.3,0.7l0.5-0.2c0.3-0.1,0.7-0.1,1-0.1c1.4,0,1.8,0.6,1.8,3.4v9.7
		c0,4.3-0.4,5.1-2.7,5.1h-1.1v0.8h11.8v-0.8h-1.4c-2.4,0-2.8-0.8-2.8-5.1v-10.3c1.2-2,2.1-2.9,3.1-2.9c0.2,0,0.5,0.1,0.7,0.3
		c1,1.1,1.3,1.2,2.3,1.2c1.3,0,2.2-1,2.2-2.3c0-1.5-1.2-2.5-2.9-2.5C583.9,190.5,582.2,191.7,580.4,194.2z"/>
	<path d="M599.1,213.2c4.3,0,7.7-3.4,8.9-8.8l-0.7-0.6c-1.7,3.6-4,5.5-6.8,5.5c-3.9,0-6.6-3.9-6.7-9.7h13.5
		c-0.1-5.6-3.2-9.1-7.9-9.1c-5.2,0-9.2,4.9-9.2,11.4S594,213.2,599.1,213.2z M598.2,192.6c2.4,0,3.9,1.9,4,5.1h-8.4
		C594.2,194.4,595.8,192.6,598.2,192.6z"/>
	<path d="M614.8,201.8c-2.6,1.4-4,3.5-4,6c0,3.1,2.1,5.4,4.8,5.4c2.2,0,4.1-1,6.8-3.5c0.3,2.3,1.2,3.5,2.7,3.5c1.9,0,3.6-1.1,5-3.4
		l-0.6-0.5c-0.8,0.8-1.5,1.2-2.2,1.2c-0.8,0-1-0.5-1-2.4v-10.7c0-4.8-2-6.9-6.8-6.9c-4.4,0-8.2,2.5-8.2,5.5c0,1.3,1,2.4,2.1,2.4
		c0.8,0,1.6-0.5,1.8-1.3c0.1-0.4,0.1-0.4,0.1-1.4v-0.7c0-1.8,1.4-3,3.4-3c1.4,0,2.4,0.6,3,1.5c0.4,1,0.5,1.6,0.5,4.1v1.1
		C618,200.2,616.6,200.8,614.8,201.8z M622.4,208.1c-1.3,1.5-2.6,2.2-4.1,2.2c-2,0-3.4-1.5-3.4-3.7c0-2.7,1.5-3.9,7.5-6.4V208.1z"/>
	<path d="M352.6,446.1l-1-0.3c-1.9,4.9-4.2,6.7-8.9,6.7h-4c-1.3,0-2.6-0.1-3-0.3c-0.8-0.4-1-0.8-1-3.6v-20.8c0-3,0.9-4.1,3.3-4.1
		h1.1v-0.9h-13.8v0.9h1.1c2.4,0,3.3,1.1,3.3,4.1v22c0,3-0.9,4.1-3.3,4.1h-1.1v0.9h24.5L352.6,446.1z"/>
	<path d="M365.8,455.1c5.9,0,10.6-5.2,10.6-11.8c0-6.3-4.3-11-10.2-11c-3,0-5.3,1-7.4,3.1s-3.4,5.3-3.4,8.5
		C355.5,450.4,359.9,455.1,365.8,455.1z M365.6,434.1c3.9,0,6.5,4.4,6.5,10.8c0,5.2-2.3,8.6-5.8,8.6c-3.8,0-6.5-4.1-6.5-10
		C359.8,437.5,361.9,434.1,365.6,434.1z"/>
	<path d="M394.8,453c-0.3,0.7-0.9,1-2,1h-0.9v0.8h10.3V454h-0.8c-1.1,0-1.8-0.3-2.1-1c-0.3-0.6-0.3-0.6-0.4-4.3v-7.6
		c0-3.2-0.2-4.6-0.8-6c-0.8-1.7-2.5-2.8-4.5-2.8c-2.4,0-4.6,1.2-7.4,4.1v-4.4c-3.3,1.6-3.8,1.9-7.4,3.4l0.3,0.7l0.5-0.2
		c0.3-0.1,0.6-0.1,1-0.1c1.4,0,1.8,0.6,1.8,3.4v9.7c0,4.3-0.4,5.1-2.8,5.1h-0.9v0.8h10.8V454h-1c-1,0-1.7-0.4-2-1
		c-0.2-0.5-0.4-2-0.4-4.2v-10.5c2.5-2.2,3.7-2.9,5.6-2.9c2.6,0,3.4,1.2,3.4,5.7v7.7C395.1,452.4,395.1,452.4,394.8,453z"/>
	<path d="M426.8,452.4l-0.3-0.8c-0.5,0.2-0.9,0.2-1.2,0.2c-0.6,0-1.2-0.3-1.5-0.9c-0.3-0.6-0.3-0.8-0.4-4.9v-24
		c-3.3,1.6-3.8,1.9-7.4,3.4l0.3,0.7l0.5-0.1c0.3-0.1,0.7-0.2,1-0.2c1.4,0,1.7,0.6,1.7,3.4v5c-2.1-1.3-3.2-1.7-4.9-1.7
		c-5.3,0-9.9,5.6-9.9,12.1c0,6,3.6,10.7,8.3,10.7c2.2,0,4.2-1,6.5-3.2v3.3C422.6,453.8,423.2,453.6,426.8,452.4z M415.2,452
		c-3.8,0-6.2-3.6-6.2-9.2c0-5.1,2.4-8.7,5.9-8.7c1.5,0,2.9,0.7,3.7,1.9c0.7,1,1,2.2,1,4.7v9.6C418.3,451.4,416.9,452,415.2,452z"/>
	<path d="M432.4,435.5c-2.1,2.2-3.4,5.3-3.4,8.5c0,6.3,4.4,11.1,10.3,11.1c5.9,0,10.6-5.2,10.6-11.8c0-6.3-4.3-11-10.2-11
		C436.9,432.4,434.6,433.3,432.4,435.5z M445.7,444.9c0,5.2-2.3,8.6-5.8,8.6c-3.8,0-6.5-4.1-6.5-10c0-6,2.1-9.4,5.8-9.4
		C443.1,434.1,445.7,438.5,445.7,444.9z"/>
	<path d="M468.4,453c-0.3,0.7-0.9,1-2,1h-0.9v0.8h10.3V454H475c-1.1,0-1.8-0.3-2.1-1c-0.3-0.6-0.3-0.6-0.4-4.3v-7.6
		c0-3.2-0.2-4.6-0.8-6c-0.8-1.7-2.5-2.8-4.5-2.8c-2.4,0-4.6,1.2-7.4,4.1v-4.4c-3.3,1.6-3.8,1.9-7.4,3.4l0.3,0.7l0.5-0.2
		c0.3-0.1,0.6-0.1,1-0.1c1.4,0,1.8,0.6,1.8,3.4v9.7c0,4.3-0.4,5.1-2.8,5.1h-0.9v0.8h10.8V454h-1c-1,0-1.7-0.4-2-1
		c-0.2-0.5-0.4-2-0.4-4.2v-10.5c2.5-2.2,3.7-2.9,5.6-2.9c2.6,0,3.4,1.2,3.4,5.7v7.7C468.6,452.4,468.6,452.4,468.4,453z"/>
	<path d="M479,459.6v0.8c3.7-0.6,6.1-3.1,6.1-6.4c0-2.4-1.4-4.2-3.4-4.2c-1.5,0-2.6,1.1-2.6,2.5c0,1.4,1.2,2.6,2.5,2.6
		c0.4,0,0.7,0,1.4-0.2C483,457.1,481.6,458.8,479,459.6z"/>
	<path d="M505.2,444.3c0.1,2.4,0.6,4.3,1.5,5.8c2,3.4,5.6,5.1,10.7,5.1c5.3,0,8.8-1.6,10.8-4.9c1.2-2,1.7-4.3,1.7-8.1v-14.4
		c0-3,0.9-4.1,3.3-4.1h1.1v-0.9h-11v0.9h1.1c2.4,0,3.3,1.1,3.3,4.1v14.4c0,2.7-0.3,4.4-0.9,5.9c-1.3,2.9-4.6,4.8-8.4,4.8
		c-2.8,0-5.4-1.2-6.7-3c-1.1-1.5-1.5-3.2-1.5-6.5v-15.5c0-3,0.9-4.1,3.3-4.1h1.1v-0.9h-13.8v0.9h1.1c2.4,0,3.3,1.1,3.3,4.1v10.9
		C505.2,442.3,505.2,443.6,505.2,444.3z"/>
	<path d="M555.4,453.9h-0.8v0.9h15.3v-0.9c-2.9,0-5-1.3-9.1-5.5l-11-11.4l1-1c3-3.1,3.3-3.5,7-7.5c2.1-2.3,2.6-2.8,3.5-3.4
		c1-0.7,2.7-1.3,3.6-1.3h0.7v-1h-11.7v0.9c2.3,0.1,2.8,0.3,2.8,1.3c0,0.8-0.8,2-2.9,4.7c-1.9,2.4-4.5,4.9-8.4,8.4v-10.3
		c0-1.7,0.2-2.6,0.8-3.3c0.5-0.6,0.9-0.7,2.7-0.8l1,0v-0.9h-13.9v0.9h1.1c2.4,0,3.3,1.1,3.3,4.1v22c0,3-0.9,4.1-3.3,4.1h-1.1v0.9
		h13.9v-0.9h-1.2c-2.5,0-3.4-1.1-3.4-4.1v-10.5l8.8,9c2.2,2.2,3.3,3.6,3.3,4.3C557.3,453.4,556.5,453.9,555.4,453.9z"/>
	<path d="M293.3,660.8h-10v0.9h0.6c1.8,0,2.7,0.6,2.7,1.9c0,0.7-0.2,1.5-0.9,3.3l-7,17.7l-8.4-19.2c-0.5-1.1-0.6-1.6-0.6-2.2
		c0-1,1-1.5,2.7-1.5h0.9v-0.9h-13.2v0.9h0.7c2.1,0,3.1,1.1,5.2,6l11.2,25.6h0.4l10-25.5c1.8-4.7,3-6,5.7-6.1V660.8z"/>
	<path d="M307.4,690.3c-0.8,0-1-0.5-1-2.4v-10.7c0-4.8-2-6.9-6.8-6.9c-4.4,0-8.2,2.5-8.2,5.5c0,1.3,1,2.4,2.1,2.4
		c0.8,0,1.6-0.5,1.8-1.3c0.1-0.4,0.1-0.4,0.1-1.4v-0.7c0-1.8,1.4-3,3.4-3c1.4,0,2.4,0.6,3,1.5c0.4,1,0.5,1.6,0.5,4.1v1.1
		c-4.5,1.7-5.8,2.3-7.6,3.3c-2.6,1.4-4,3.5-4,6c0,3.1,2.1,5.4,4.8,5.4c2.2,0,4.1-1,6.8-3.5c0.3,2.3,1.2,3.5,2.7,3.5
		c1.9,0,3.6-1.1,5-3.4l-0.6-0.5C308.8,690,308,690.3,307.4,690.3z M302.4,688c-1.3,1.5-2.6,2.2-4.1,2.2c-2,0-3.4-1.5-3.4-3.7
		c0-2.7,1.5-3.9,7.5-6.4V688z"/>
	<path d="M331.7,691c-0.3-0.6-0.3-0.6-0.4-4.3v-7.6c0-3.2-0.2-4.6-0.8-6c-0.8-1.7-2.5-2.8-4.5-2.8c-2.4,0-4.6,1.2-7.4,4.1v-4.4
		c-3.3,1.6-3.8,1.9-7.4,3.4l0.3,0.7l0.5-0.2c0.3-0.1,0.6-0.1,1-0.1c1.4,0,1.8,0.6,1.8,3.4v9.7c0,4.3-0.4,5.1-2.8,5.1h-0.9v0.8H322
		V692h-1c-1,0-1.7-0.4-2-1c-0.2-0.5-0.4-2-0.4-4.2v-10.5c2.5-2.2,3.7-2.9,5.6-2.9c2.6,0,3.4,1.2,3.4,5.7v7.7
		c-0.1,3.6-0.1,3.6-0.4,4.3c-0.3,0.7-0.9,1-2,1h-0.9v0.8h10.3V692h-0.8C332.7,692,332,691.7,331.7,691z"/>
	<path d="M347.7,689.1c-4,0-6.6-3.4-6.6-8.7c0-4.9,2.2-8.2,5.5-8.2c1.8,0,2.6,0.8,2.9,2.8c0.2,1.7,1.1,2.5,2.6,2.5
		c1.4,0,2.4-0.9,2.4-2.1c0-2.8-3.3-5-7.2-5c-6,0-10.1,4.8-10.1,11.6c0,3,0.8,5.7,2.3,7.6c1.7,2.2,4.4,3.6,6.9,3.6
		c4.1,0,7.2-3,8.9-8.8l-0.8-0.4C353.2,687.3,350.8,689.1,347.7,689.1z"/>
	<path d="M369,670.4c-3,0-5.3,1-7.4,3.1s-3.4,5.3-3.4,8.5c0,6.3,4.4,11.1,10.3,11.1c5.9,0,10.6-5.2,10.6-11.8
		C379.2,675,374.9,670.4,369,670.4z M369.1,691.4c-3.8,0-6.5-4.1-6.5-10c0-6,2.1-9.4,5.8-9.4c3.9,0,6.5,4.4,6.5,10.8
		C374.8,688.1,372.6,691.4,369.1,691.4z"/>
	<path d="M402.4,690c-1.6,0-1.9-0.9-1.9-5.6v-13.6h-7.7v0.8h1.2c2.4,0,2.8,0.8,2.8,5.1v10.5c-2.7,2.4-3.6,2.8-5.3,2.8
		c-2.4,0-3.4-1.5-3.4-5.3v-14h-7.2v0.8h0.7c2.3,0,2.7,0.8,2.7,5.1v8.2c0,2.6,0.2,4,0.8,5.4c0.8,1.9,2.4,3,4.6,3
		c1.7,0,3.4-0.7,4.7-1.9c0.7-0.7,1-0.9,2.4-2.5v4.5c3.3-1.4,3.8-1.6,7.3-2.7l-0.3-0.9C403.2,689.9,402.9,690,402.4,690z"/>
	<path d="M418.9,671.6h0.6c0.9,0,1.5,0.5,1.5,1.2c0,0.3-0.1,0.6-0.4,1.5l-4.3,11.4l-4-10.4c-0.4-1.2-0.6-1.8-0.6-2.4
		c0-1,0.6-1.4,1.8-1.4h0.4v-0.9h-9.9v0.9h0.5c0.9,0,1.9,0.6,2.5,1.5c0.6,0.8,1,1.8,1.9,4l6.1,16.2h0.9l6.5-17.7
		c1.1-2.8,1.8-3.8,3.1-3.9l0.6-0.1v-0.9h-7V671.6z"/>
	<path d="M436.5,689.2c-3.9,0-6.6-3.9-6.7-9.7h13.5c-0.1-5.6-3.2-9.1-7.9-9.1c-5.2,0-9.2,4.9-9.2,11.4s3.8,11.4,8.9,11.4
		c4.3,0,7.7-3.4,8.9-8.8l-0.7-0.6C441.6,687.3,439.3,689.2,436.5,689.2z M434.3,672.5c2.4,0,3.9,1.9,4,5.1h-8.4
		C430.2,674.4,431.9,672.5,434.3,672.5z"/>
	<path d="M458.8,670.4c-1.9,0-3.6,1.2-5.3,3.7v-4c-3.3,1.6-3.8,1.9-7.3,3.4l0.3,0.7l0.5-0.2c0.3-0.1,0.7-0.1,1-0.1
		c1.4,0,1.8,0.6,1.8,3.4v9.7c0,4.3-0.4,5.1-2.7,5.1h-1.1v0.8h11.8V692h-1.4c-2.4,0-2.8-0.8-2.8-5.1v-10.3c1.2-2,2.1-2.9,3.1-2.9
		c0.2,0,0.5,0.1,0.7,0.3c1,1.1,1.3,1.2,2.3,1.2c1.3,0,2.2-1,2.2-2.3C461.7,671.4,460.5,670.4,458.8,670.4z"/>
	<path d="M465.3,687.8c-1.5,0-2.6,1.1-2.6,2.5c0,1.4,1.2,2.6,2.5,2.6c0.4,0,0.7,0,1.4-0.2c-0.1,2.4-1.5,4-4.1,4.8v0.8
		c3.7-0.6,6.1-3.1,6.1-6.4C468.7,689.6,467.2,687.8,465.3,687.8z"/>
	<path d="M502.7,691c-7.1,0-11.5-5.5-11.5-14.1c0-8.9,4.5-14.7,11.4-14.7c2.8,0,5.6,1.2,7.6,3.2c1.7,1.7,2.6,3.5,2.9,6.2l0.9-0.1
		l-0.3-10.8h-1c-0.2,1.3-0.6,1.9-1.5,1.9c-0.4,0-0.5,0-2.4-0.9c-1.9-0.9-4.3-1.3-6.8-1.3c-9.4,0-16.7,7.2-16.7,16.3
		c0,9,7.2,16.4,16.1,16.4c5.1,0,9.9-2.7,12.9-7.3l-0.8-0.5C510.6,689.1,507.1,691,502.7,691z"/>
	<path d="M534.5,690.3c-0.8,0-1-0.5-1-2.4v-10.7c0-4.8-2-6.9-6.8-6.9c-4.4,0-8.2,2.5-8.2,5.5c0,1.3,1,2.4,2.1,2.4
		c0.8,0,1.6-0.5,1.8-1.3c0.1-0.4,0.1-0.4,0.1-1.4v-0.7c0-1.8,1.4-3,3.4-3c1.4,0,2.4,0.6,3,1.5c0.4,1,0.5,1.6,0.5,4.1v1.1
		c-4.5,1.7-5.8,2.3-7.6,3.3c-2.6,1.4-4,3.5-4,6c0,3.1,2.1,5.4,4.8,5.4c2.2,0,4.1-1,6.8-3.5c0.3,2.3,1.2,3.5,2.7,3.5
		c1.9,0,3.6-1.1,5-3.4l-0.6-0.5C535.9,690,535.2,690.3,534.5,690.3z M529.5,688c-1.3,1.5-2.6,2.2-4.1,2.2c-2,0-3.4-1.5-3.4-3.7
		c0-2.7,1.5-3.9,7.5-6.4V688z"/>
	<path d="M558.8,691c-0.3-0.6-0.3-0.6-0.4-4.3v-7.6c0-3.2-0.2-4.6-0.8-6c-0.8-1.7-2.5-2.8-4.5-2.8c-2.4,0-4.6,1.2-7.4,4.1v-4.4
		c-3.3,1.6-3.8,1.9-7.4,3.4l0.3,0.7l0.5-0.2c0.3-0.1,0.6-0.1,1-0.1c1.4,0,1.8,0.6,1.8,3.4v9.7c0,4.3-0.4,5.1-2.8,5.1h-0.9v0.8h10.8
		V692h-1c-1,0-1.7-0.4-2-1c-0.2-0.5-0.4-2-0.4-4.2v-10.5c2.5-2.2,3.7-2.9,5.6-2.9c2.6,0,3.4,1.2,3.4,5.7v7.7
		c-0.1,3.6-0.1,3.6-0.4,4.3c-0.3,0.7-0.9,1-2,1h-0.9v0.8h10.3V692h-0.8C559.8,692,559.1,691.7,558.8,691z"/>
	<path d="M580.8,690.3c-0.8,0-1-0.5-1-2.4v-10.7c0-4.8-2-6.9-6.8-6.9c-4.4,0-8.2,2.5-8.2,5.5c0,1.3,1,2.4,2.1,2.4
		c0.8,0,1.6-0.5,1.8-1.3c0.1-0.4,0.1-0.4,0.1-1.4v-0.7c0-1.8,1.4-3,3.4-3c1.4,0,2.4,0.6,3,1.5c0.4,1,0.5,1.6,0.5,4.1v1.1
		c-4.5,1.7-5.8,2.3-7.6,3.3c-2.6,1.4-4,3.5-4,6c0,3.1,2.1,5.4,4.8,5.4c2.2,0,4.1-1,6.8-3.5c0.3,2.3,1.2,3.5,2.7,3.5
		c1.9,0,3.6-1.1,5-3.4l-0.6-0.5C582.2,690,581.4,690.3,580.8,690.3z M575.8,688c-1.3,1.5-2.6,2.2-4.1,2.2c-2,0-3.4-1.5-3.4-3.7
		c0-2.7,1.5-3.9,7.5-6.4V688z"/>
	<path d="M606,689.9c-0.6,0-1.2-0.3-1.5-0.9c-0.3-0.6-0.3-0.8-0.4-4.9v-24c-3.3,1.6-3.8,1.9-7.4,3.4l0.3,0.7l0.5-0.1
		c0.3-0.1,0.7-0.2,1-0.2c1.4,0,1.7,0.6,1.7,3.4v5c-2.1-1.3-3.2-1.7-4.9-1.7c-5.3,0-9.9,5.6-9.9,12.1c0,6,3.6,10.7,8.3,10.7
		c2.2,0,4.2-1,6.5-3.2v3.3c3.1-1.4,3.6-1.7,7.2-2.8l-0.3-0.8C606.8,689.8,606.4,689.9,606,689.9z M600.3,688.1
		c-1.2,1.3-2.6,1.9-4.3,1.9c-3.8,0-6.2-3.6-6.2-9.2c0-5.1,2.4-8.7,5.9-8.7c1.5,0,2.9,0.7,3.7,1.9c0.7,1,1,2.2,1,4.7V688.1z"/>
	<path d="M626.7,690.3c-0.8,0-1-0.5-1-2.4v-10.7c0-4.8-2-6.9-6.8-6.9c-4.4,0-8.2,2.5-8.2,5.5c0,1.3,1,2.4,2.1,2.4
		c0.8,0,1.6-0.5,1.8-1.3c0.1-0.4,0.1-0.4,0.1-1.4v-0.7c0-1.8,1.4-3,3.4-3c1.4,0,2.4,0.6,3,1.5c0.4,1,0.5,1.6,0.5,4.1v1.1
		c-4.5,1.7-5.8,2.3-7.6,3.3c-2.6,1.4-4,3.5-4,6c0,3.1,2.1,5.4,4.8,5.4c2.2,0,4.1-1,6.8-3.5c0.3,2.3,1.2,3.5,2.7,3.5
		c1.9,0,3.6-1.1,5-3.4l-0.6-0.5C628.1,690,627.4,690.3,626.7,690.3z M621.8,688c-1.3,1.5-2.6,2.2-4.1,2.2c-2,0-3.4-1.5-3.4-3.7
		c0-2.7,1.5-3.9,7.5-6.4V688z"/>
</g>
</svg>
